<?xml version="1.0" encoding="utf-8"?>
<!-- Generator: Adobe Illustrator 24.1.2, SVG Export Plug-In . SVG Version: 6.00 Build 0)  -->
<svg version="1.1" id="Capa_1" xmlns="http://www.w3.org/2000/svg" xmlns:xlink="http://www.w3.org/1999/xlink" x="0px" y="0px"
	 viewBox="0 0 447.8 108.6" style="enable-background:new 0 0 447.8 108.6;" xml:space="preserve">
<style type="text/css">
	.st0{fill:#FFFFFF;}
</style>
<path class="st0" d="M204.1,97.1h8.3v1.3H209v10h-1.5v-10h-3.4V97.1z M227.7,103.1h4.2v-1.3h-4.2v-3.4h5v-1.3h-6.5v11.3h6.7v-1.3
	h-5.2V103.1z M254,106c-0.8,0.8-1.6,1.2-2.6,1.2c-2.1,0-3.4-1.7-3.4-4.5c0-2.7,1.4-4.5,3.5-4.5c0.8,0,1.6,0.4,2.2,1l0,0l0.8-1l0,0
	c-0.8-0.9-1.9-1.4-3.1-1.4c-3,0-5,2.4-5,5.9c0,3.5,2,5.8,4.9,5.8c1.4,0,2.5-0.5,3.5-1.6l0,0L254,106L254,106z M275.4,101.8h-5.1
	v-4.7h-1.5v11.3h1.5v-5.3h5.1v5.3h1.5V97.1h-1.5V101.8z M298.4,102.9c0,0.9,0.1,1.9,0.1,2.8c0,0.2,0,0.5,0,0.7l-1.2-2.3l-4-7l0,0
	h-1.5v11.3h1.5v-5.9c0-0.9-0.1-1.8-0.1-2.7c0-0.2,0-0.5,0-0.7l1.2,2.2l4,7l0,0h1.5V97.1h-1.5V102.9z M323.8,102.7
	c0,3.5-1.9,5.9-4.8,5.9s-4.8-2.4-4.8-5.9c0-3.5,1.9-5.8,4.8-5.8S323.8,99.1,323.8,102.7z M322.2,102.7c0-2.7-1.3-4.5-3.3-4.5
	c-2,0-3.3,1.7-3.3,4.5c0,2.8,1.3,4.5,3.3,4.5C320.9,107.2,322.2,105.4,322.2,102.7z M339.5,97.1H338v11.3h6.4v-1.3h-4.9V97.1z
	 M366.8,102.7c0,3.5-1.9,5.9-4.8,5.9s-4.8-2.4-4.8-5.9c0-3.5,1.9-5.8,4.8-5.8S366.8,99.1,366.8,102.7z M365.2,102.7
	c0-2.7-1.3-4.5-3.3-4.5c-2,0-3.3,1.7-3.3,4.5c0,2.8,1.3,4.5,3.3,4.5C363.9,107.2,365.2,105.4,365.2,102.7z M385.2,103.7h2.4v2.8
	c-0.4,0.4-1.2,0.6-2,0.6c-2.3,0-3.7-1.7-3.7-4.5c0-2.8,1.4-4.5,3.7-4.5c0.9,0,1.7,0.3,2.4,1l0,0l0.8-1l0,0c-0.9-0.9-2-1.4-3.3-1.4
	c-3.1,0-5.2,2.4-5.2,5.9c0,3.5,2,5.8,5.1,5.8c1.4,0,2.7-0.5,3.5-1.3l0,0v-4.8h-3.8V103.7z M403.5,108.4h1.5V97.1h-1.5V108.4z
	 M421.4,103.1h4.2v-1.3h-4.2v-3.4h5v-1.3h-6.5v11.3h6.7v-1.3h-5.2V103.1z M445.4,102.3l-1.6-0.7l0,0c-0.9-0.4-1.8-0.8-1.8-1.8
	c0-1,0.8-1.6,2-1.6c0.9,0,1.8,0.3,2.5,1l0,0l0.8-1l0,0l0,0c-0.9-0.9-2.1-1.4-3.3-1.4c-2.1,0-3.6,1.3-3.6,3c0,1.3,0.8,2.3,2.3,2.9
	l1.6,0.7c1,0.4,1.8,0.8,1.8,1.9c0,1.1-0.9,1.8-2.3,1.8c-1.1,0-2.2-0.5-3-1.4l0,0l-0.9,1l0,0l0,0c1,1.1,2.4,1.7,3.9,1.7
	c2.3,0,3.9-1.3,3.9-3.2C447.8,103.5,446.6,102.8,445.4,102.3z M4.7,74.3l25-57.1l25,57.1l0.5,1.1h4.2l-1.2-2.7L31.4,11.6l-0.5-1.1
	h-2.5L28,11.6L1.2,72.8L0,75.4h4.2L4.7,74.3z M69.8,12.4v61.1v1.9h1.9h34.4h1.9v-3.8h-1.9H73.6V12.4v-1.9h-3.8V12.4z M259,12.4v61.1
	v1.9h3.8v-1.9V12.4v-1.9H259V12.4z M286.1,73.5V21.3l24.1,53l0.5,1.1h2.5l0.5-1.1l24-53l0.1,52.2v1.9h3.8v-1.9l-0.1-61.1v-1.9h-3.2
	l-0.5,1.1l-25.9,57.2l-26-57.2l-0.5-1.1h-3.2v1.9v61.1v1.9h3.8V73.5z M176,43c0-18.3-14.9-33.2-33.2-33.2S109.5,24.7,109.5,43
	s14.9,33.2,33.2,33.2S176,61.3,176,43z M172.3,43c0,16.3-13.2,29.5-29.5,29.5S113.2,59.3,113.2,43s13.2-29.5,29.5-29.5
	S172.3,26.7,172.3,43z M170.6,75.7l-15.9-16.4l2.8-2.7L173.4,73L170.6,75.7z M213.4,76.4c-13.8,0-25-11.2-25-25V10.5h4v40.9
	c0,11.6,9.4,21,21,21c11.6,0,21-9.4,21-21V10.5h4v40.9C238.4,65.2,227.2,76.4,213.4,76.4z M447.8,0v85.9h-96.9V0H447.8z M365,10.5
	h-3.8v1.9v61.1v1.9h3.8v-1.9V12.4V10.5z M401.1,54.8H387v3.8h14.1V54.8z M418.5,47.3h-19v3.8h19V47.3z M437.3,75.4l-1.2-2.7
	l-7.2-16.4h2.4v-3.8h-4l-17.9-40.9l-0.5-1.1h-2.5l-0.5,1.1l-26.7,61.1l-1.2,2.7h4.2l0.5-1.1l25-57.1l15.5,35.3H420v3.8h4.8l7.9,18
	l0.5,1.1H437.3z M438.4,47.4h-5v3.8h5V47.4z M428.9,56.3h-4.1l-1.7-3.8h4.1L428.9,56.3z"/>
</svg>
