<?xml version="1.0" encoding="utf-8"?>
<!-- Generator: Adobe Illustrator 24.1.2, SVG Export Plug-In . SVG Version: 6.00 Build 0)  -->
<svg version="1.1" id="Capa_1" xmlns="http://www.w3.org/2000/svg" xmlns:xlink="http://www.w3.org/1999/xlink" x="0px" y="0px"
	 viewBox="0 0 447.8 85.9" style="enable-background:new 0 0 447.8 85.9;" xml:space="preserve">
<style type="text/css">
	.st0{fill:#FFFFFF;}
</style>
<path class="st0" d="M4.2,75.4H0l1.2-2.7L28,11.6l0.5-1.1h2.5l0.5,1.1l26.7,61.1l1.2,2.7h-4.2l-0.5-1.1l-25-57.1l-25,57.1L4.2,75.4z
	 M69.8,10.5h3.8v1.9v59.2h32.5h1.9v3.8h-1.9H71.7h-1.9v-1.9V12.4V10.5z M259,10.5h3.8v1.9v61.1v1.9H259v-1.9V12.4V10.5z M286.1,75.4
	h-3.8v-1.9V12.4v-1.9h3.2l0.5,1.1l26,57.2l25.9-57.2l0.5-1.1h3.2v1.9l0.1,61.1v1.9h-3.8v-1.9l-0.1-52.2l-24,53l-0.5,1.1h-2.5
	l-0.5-1.1l-24.1-53v52.2V75.4z M142.7,76.2c-18.3,0-33.2-14.9-33.2-33.2s14.9-33.2,33.2-33.2S176,24.7,176,43S161.1,76.2,142.7,76.2
	z M142.7,13.5c-16.3,0-29.5,13.2-29.5,29.5s13.2,29.5,29.5,29.5s29.5-13.2,29.5-29.5S159,13.5,142.7,13.5z M173.4,73l-15.9-16.4
	l-2.8,2.7l15.9,16.4L173.4,73z M238.4,51.4V10.5h-4v40.9c0,11.6-9.4,21-21,21c-11.6,0-21-9.4-21-21V10.5h-4v40.9
	c0,13.8,11.2,25,25,25S238.4,65.2,238.4,51.4z M350.8,0v85.9h96.9V0H350.8z M365,12.4v61.1v1.9h-3.8v-1.9V12.4v-1.9h3.8V12.4z
	 M401.1,58.6H387v-3.8h14.1V58.6z M418.5,51.1h-19v-3.8h19V51.1z M433.1,75.4l-0.5-1.1l-7.9-18H420v-3.8h3.1l-15.5-35.3l-25,57.1
	l-0.5,1.1h-4.2l1.2-2.7l26.7-61.1l0.5-1.1h2.5l0.5,1.1l17.9,40.9h4v3.8h-2.4l7.2,16.4l1.2,2.7H433.1z M438.4,51.2h-5v-3.8h5V51.2z
	 M427.2,52.5h-4.1l1.7,3.8h4.1L427.2,52.5z"/>
</svg>
