<svg width="313" height="315" viewBox="0 0 313 315" fill="none" xmlns="http://www.w3.org/2000/svg">
<path d="M8.49995 2.6C9.19995 2.6 9.79995 2 9.79995 1.3C9.79995 0.6 9.19995 0 8.49995 0C7.79995 0 7.19995 0.6 7.19995 1.3C7.19995 2 7.79995 2.6 8.49995 2.6Z" fill="white"/>
<path d="M22.9001 2.6C23.6001 2.6 24.2001 2 24.2001 1.3C24.2001 0.6 23.6001 0 22.9001 0C22.2001 0 21.6001 0.6 21.6001 1.3C21.6001 2 22.2001 2.6 22.9001 2.6Z" fill="white"/>
<path d="M37.3 2.6C38 2.6 38.6 2 38.6 1.3C38.6 0.6 38 0 37.3 0C36.6 0 36 0.6 36 1.3C36 2 36.6 2.6 37.3 2.6Z" fill="white"/>
<path d="M51.6999 2.6C52.4179 2.6 52.9999 2.01797 52.9999 1.3C52.9999 0.58203 52.4179 0 51.6999 0C50.9819 0 50.3999 0.58203 50.3999 1.3C50.3999 2.01797 50.9819 2.6 51.6999 2.6Z" fill="white"/>
<path d="M66.1 2.6C66.8 2.6 67.4 2 67.4 1.3C67.4 0.6 66.8 0 66.1 0C65.4 0 64.8 0.6 64.8 1.3C64.8 2 65.4 2.6 66.1 2.6Z" fill="white"/>
<path d="M80.5 2.6C81.2 2.6 81.8 2 81.8 1.3C81.8 0.6 81.2 0 80.5 0C79.8 0 79.2 0.6 79.2 1.3C79.2 2 79.8 2.6 80.5 2.6Z" fill="white"/>
<path d="M94.9001 2.6C95.6001 2.6 96.2001 2 96.2001 1.3C96.2001 0.6 95.6001 0 94.9001 0C94.2001 0 93.6001 0.6 93.6001 1.3C93.6001 2 94.2001 2.6 94.9001 2.6Z" fill="white"/>
<path d="M109.3 2.6C110 2.6 110.6 2 110.6 1.3C110.6 0.6 110 0 109.3 0C108.6 0 108 0.6 108 1.3C108 2 108.6 2.6 109.3 2.6Z" fill="white"/>
<path d="M123.7 2.6C124.418 2.6 125 2.01797 125 1.3C125 0.58203 124.418 0 123.7 0C122.982 0 122.4 0.58203 122.4 1.3C122.4 2.01797 122.982 2.6 123.7 2.6Z" fill="white"/>
<path d="M138.1 2.6C138.8 2.6 139.4 2 139.4 1.3C139.4 0.6 138.8 0 138.1 0C137.4 0 136.8 0.6 136.8 1.3C136.8 2 137.4 2.6 138.1 2.6Z" fill="white"/>
<path d="M152.5 2.6C153.2 2.6 153.8 2 153.8 1.3C153.8 0.6 153.2 0 152.5 0C151.8 0 151.2 0.6 151.2 1.3C151.2 2 151.8 2.6 152.5 2.6Z" fill="white"/>
<path d="M166.9 2.6C167.6 2.6 168.2 2 168.2 1.3C168.2 0.6 167.6 0 166.9 0C166.2 0 165.6 0.6 165.6 1.3C165.6 2 166.2 2.6 166.9 2.6Z" fill="white"/>
<path d="M181.3 2.6C182 2.6 182.6 2 182.6 1.3C182.6 0.6 182 0 181.3 0C180.6 0 180 0.6 180 1.3C180 2 180.6 2.6 181.3 2.6Z" fill="white"/>
<path d="M195.7 2.6C196.418 2.6 197 2.01797 197 1.3C197 0.58203 196.418 0 195.7 0C194.982 0 194.4 0.58203 194.4 1.3C194.4 2.01797 194.982 2.6 195.7 2.6Z" fill="white"/>
<path d="M210.1 2.6C210.8 2.6 211.4 2 211.4 1.3C211.4 0.6 210.8 0 210.1 0C209.4 0 208.8 0.6 208.8 1.3C208.8 2 209.4 2.6 210.1 2.6Z" fill="white"/>
<path d="M224.5 2.6C225.2 2.6 225.8 2 225.8 1.3C225.8 0.6 225.2 0 224.5 0C223.8 0 223.2 0.6 223.2 1.3C223.2 2 223.8 2.6 224.5 2.6Z" fill="white"/>
<path d="M238.9 2.6C239.6 2.6 240.2 2 240.2 1.3C240.2 0.6 239.6 0 238.9 0C238.2 0 237.6 0.6 237.6 1.3C237.6 2 238.2 2.6 238.9 2.6Z" fill="white"/>
<path d="M253.3 2.6C254 2.6 254.6 2 254.6 1.3C254.6 0.6 254 0 253.3 0C252.6 0 252 0.6 252 1.3C252 2 252.6 2.6 253.3 2.6Z" fill="white"/>
<path d="M267.7 2.6C268.418 2.6 269 2.01797 269 1.3C269 0.58203 268.418 0 267.7 0C266.982 0 266.4 0.58203 266.4 1.3C266.4 2.01797 266.982 2.6 267.7 2.6Z" fill="white"/>
<path d="M282.1 2.6C282.8 2.6 283.4 2 283.4 1.3C283.4 0.6 282.8 0 282.1 0C281.4 0 280.8 0.6 280.8 1.3C280.8 2 281.4 2.6 282.1 2.6Z" fill="white"/>
<path d="M296.5 2.6C297.2 2.6 297.8 2 297.8 1.3C297.8 0.6 297.2 0 296.5 0C295.8 0 295.2 0.6 295.2 1.3C295.2 2 295.8 2.6 296.5 2.6Z" fill="white"/>
<path d="M310.9 2.6C311.6 2.6 312.2 2 312.2 1.3C312.2 0.6 311.6 0 310.9 0C310.2 0 309.6 0.6 309.6 1.3C309.6 2 310.2 2.6 310.9 2.6Z" fill="white"/>
<path d="M1.3 17C2 17 2.6 16.4 2.6 15.7C2.6 15 2 14.4 1.3 14.4C0.6 14.4 0 15 0 15.7C0 16.4 0.6 17 1.3 17Z" fill="white"/>
<path d="M15.6999 17C16.4179 17 16.9999 16.418 16.9999 15.7C16.9999 14.9821 16.4179 14.4 15.6999 14.4C14.9819 14.4 14.3999 14.9821 14.3999 15.7C14.3999 16.418 14.9819 17 15.6999 17Z" fill="white"/>
<path d="M30.1 17C30.8 17 31.4 16.4 31.4 15.7C31.4 15 30.8 14.4 30.1 14.4C29.4 14.4 28.8 15 28.8 15.7C28.8 16.4 29.4 17 30.1 17Z" fill="white"/>
<path d="M44.5 17C45.2 17 45.7999 16.4 45.7999 15.7C45.7999 15 45.2 14.4 44.5 14.4C43.8 14.4 43.2 15 43.2 15.7C43.2 16.4 43.8 17 44.5 17Z" fill="white"/>
<path d="M58.9001 17C59.6001 17 60.2001 16.4 60.2001 15.7C60.2001 15 59.6001 14.4 58.9001 14.4C58.2001 14.4 57.6001 15 57.6001 15.7C57.6001 16.4 58.2001 17 58.9001 17Z" fill="white"/>
<path d="M73.3 17C74 17 74.6 16.4 74.6 15.7C74.6 15 74 14.4 73.3 14.4C72.6 14.4 72 15 72 15.7C72 16.4 72.6 17 73.3 17Z" fill="white"/>
<path d="M87.6999 17C88.4179 17 88.9999 16.418 88.9999 15.7C88.9999 14.9821 88.4179 14.4 87.6999 14.4C86.9819 14.4 86.3999 14.9821 86.3999 15.7C86.3999 16.418 86.9819 17 87.6999 17Z" fill="white"/>
<path d="M102.1 17C102.8 17 103.4 16.4 103.4 15.7C103.4 15 102.8 14.4 102.1 14.4C101.4 14.4 100.8 15 100.8 15.7C100.8 16.4 101.4 17 102.1 17Z" fill="white"/>
<path d="M116.5 17C117.2 17 117.8 16.4 117.8 15.7C117.8 15 117.2 14.4 116.5 14.4C115.8 14.4 115.2 15 115.2 15.7C115.2 16.4 115.8 17 116.5 17Z" fill="white"/>
<path d="M130.9 17C131.6 17 132.2 16.4 132.2 15.7C132.2 15 131.6 14.4 130.9 14.4C130.2 14.4 129.6 15 129.6 15.7C129.6 16.4 130.2 17 130.9 17Z" fill="white"/>
<path d="M145.3 17C146 17 146.6 16.4 146.6 15.7C146.6 15 146 14.4 145.3 14.4C144.6 14.4 144 15 144 15.7C144 16.4 144.6 17 145.3 17Z" fill="white"/>
<path d="M159.7 17C160.418 17 161 16.418 161 15.7C161 14.9821 160.418 14.4 159.7 14.4C158.982 14.4 158.4 14.9821 158.4 15.7C158.4 16.418 158.982 17 159.7 17Z" fill="white"/>
<path d="M174.1 17C174.8 17 175.4 16.4 175.4 15.7C175.4 15 174.8 14.4 174.1 14.4C173.4 14.4 172.8 15 172.8 15.7C172.8 16.4 173.4 17 174.1 17Z" fill="white"/>
<path d="M188.5 17C189.2 17 189.8 16.4 189.8 15.7C189.8 15 189.2 14.4 188.5 14.4C187.8 14.4 187.2 15 187.2 15.7C187.2 16.4 187.8 17 188.5 17Z" fill="white"/>
<path d="M202.9 17C203.6 17 204.2 16.4 204.2 15.7C204.2 15 203.6 14.4 202.9 14.4C202.2 14.4 201.6 15 201.6 15.7C201.6 16.4 202.2 17 202.9 17Z" fill="white"/>
<path d="M217.3 17C218 17 218.6 16.4 218.6 15.7C218.6 15 218 14.4 217.3 14.4C216.6 14.4 216 15 216 15.7C216 16.4 216.6 17 217.3 17Z" fill="white"/>
<path d="M231.7 17C232.418 17 233 16.418 233 15.7C233 14.9821 232.418 14.4 231.7 14.4C230.982 14.4 230.4 14.9821 230.4 15.7C230.4 16.418 230.982 17 231.7 17Z" fill="white"/>
<path d="M246.1 17C246.8 17 247.4 16.4 247.4 15.7C247.4 15 246.8 14.4 246.1 14.4C245.4 14.4 244.8 15 244.8 15.7C244.8 16.4 245.4 17 246.1 17Z" fill="white"/>
<path d="M260.5 17C261.2 17 261.8 16.4 261.8 15.7C261.8 15 261.2 14.4 260.5 14.4C259.8 14.4 259.2 15 259.2 15.7C259.2 16.4 259.8 17 260.5 17Z" fill="white"/>
<path d="M274.9 17C275.6 17 276.2 16.4 276.2 15.7C276.2 15 275.6 14.4 274.9 14.4C274.2 14.4 273.6 15 273.6 15.7C273.6 16.4 274.2 17 274.9 17Z" fill="white"/>
<path d="M289.3 17C290 17 290.6 16.4 290.6 15.7C290.6 15 290 14.4 289.3 14.4C288.6 14.4 288 15 288 15.7C288 16.4 288.6 17 289.3 17Z" fill="white"/>
<path d="M303.7 17C304.418 17 305 16.418 305 15.7C305 14.9821 304.418 14.4 303.7 14.4C302.982 14.4 302.4 14.9821 302.4 15.7C302.4 16.418 302.982 17 303.7 17Z" fill="white"/>
<path d="M8.49995 31.4C9.19995 31.4 9.79995 30.8 9.79995 30.1C9.79995 29.4 9.19995 28.8 8.49995 28.8C7.79995 28.8 7.19995 29.4 7.19995 30.1C7.19995 30.8 7.79995 31.4 8.49995 31.4Z" fill="white"/>
<path d="M22.9001 31.4C23.6001 31.4 24.2001 30.8 24.2001 30.1C24.2001 29.4 23.6001 28.8 22.9001 28.8C22.2001 28.8 21.6001 29.4 21.6001 30.1C21.6001 30.8 22.2001 31.4 22.9001 31.4Z" fill="white"/>
<path d="M37.3 31.4C38 31.4 38.6 30.8 38.6 30.1C38.6 29.4 38 28.8 37.3 28.8C36.6 28.8 36 29.4 36 30.1C36 30.8 36.6 31.4 37.3 31.4Z" fill="white"/>
<path d="M51.6999 31.4C52.3999 31.4 52.9999 30.8 52.9999 30.1C52.9999 29.4 52.3999 28.8 51.6999 28.8C50.9999 28.8 50.3999 29.4 50.3999 30.1C50.3999 30.8 50.9999 31.4 51.6999 31.4Z" fill="white"/>
<path d="M66.1 31.4C66.8 31.4 67.4 30.8 67.4 30.1C67.4 29.4 66.8 28.8 66.1 28.8C65.4 28.8 64.8 29.4 64.8 30.1C64.8 30.8 65.4 31.4 66.1 31.4Z" fill="white"/>
<path d="M80.5 31.4C81.2 31.4 81.8 30.8 81.8 30.1C81.8 29.4 81.2 28.8 80.5 28.8C79.8 28.8 79.2 29.4 79.2 30.1C79.2 30.8 79.8 31.4 80.5 31.4Z" fill="white"/>
<path d="M94.9001 31.4C95.6001 31.4 96.2001 30.8 96.2001 30.1C96.2001 29.4 95.6001 28.8 94.9001 28.8C94.2001 28.8 93.6001 29.4 93.6001 30.1C93.6001 30.8 94.2001 31.4 94.9001 31.4Z" fill="white"/>
<path d="M109.3 31.4C110 31.4 110.6 30.8 110.6 30.1C110.6 29.4 110 28.8 109.3 28.8C108.6 28.8 108 29.4 108 30.1C108 30.8 108.6 31.4 109.3 31.4Z" fill="white"/>
<path d="M123.7 31.4C124.4 31.4 125 30.8 125 30.1C125 29.4 124.4 28.8 123.7 28.8C123 28.8 122.4 29.4 122.4 30.1C122.4 30.8 123 31.4 123.7 31.4Z" fill="white"/>
<path d="M138.1 31.4C138.8 31.4 139.4 30.8 139.4 30.1C139.4 29.4 138.8 28.8 138.1 28.8C137.4 28.8 136.8 29.4 136.8 30.1C136.8 30.8 137.4 31.4 138.1 31.4Z" fill="white"/>
<path d="M152.5 31.4C153.2 31.4 153.8 30.8 153.8 30.1C153.8 29.4 153.2 28.8 152.5 28.8C151.8 28.8 151.2 29.4 151.2 30.1C151.2 30.8 151.8 31.4 152.5 31.4Z" fill="white"/>
<path d="M166.9 31.4C167.6 31.4 168.2 30.8 168.2 30.1C168.2 29.4 167.6 28.8 166.9 28.8C166.2 28.8 165.6 29.4 165.6 30.1C165.6 30.8 166.2 31.4 166.9 31.4Z" fill="white"/>
<path d="M181.3 31.4C182 31.4 182.6 30.8 182.6 30.1C182.6 29.4 182 28.8 181.3 28.8C180.6 28.8 180 29.4 180 30.1C180 30.8 180.6 31.4 181.3 31.4Z" fill="white"/>
<path d="M195.7 31.4C196.4 31.4 197 30.8 197 30.1C197 29.4 196.4 28.8 195.7 28.8C195 28.8 194.4 29.4 194.4 30.1C194.4 30.8 195 31.4 195.7 31.4Z" fill="white"/>
<path d="M210.1 31.4C210.8 31.4 211.4 30.8 211.4 30.1C211.4 29.4 210.8 28.8 210.1 28.8C209.4 28.8 208.8 29.4 208.8 30.1C208.8 30.8 209.4 31.4 210.1 31.4Z" fill="white"/>
<path d="M224.5 31.4C225.2 31.4 225.8 30.8 225.8 30.1C225.8 29.4 225.2 28.8 224.5 28.8C223.8 28.8 223.2 29.4 223.2 30.1C223.2 30.8 223.8 31.4 224.5 31.4Z" fill="white"/>
<path d="M238.9 31.4C239.6 31.4 240.2 30.8 240.2 30.1C240.2 29.4 239.6 28.8 238.9 28.8C238.2 28.8 237.6 29.4 237.6 30.1C237.6 30.8 238.2 31.4 238.9 31.4Z" fill="white"/>
<path d="M253.3 31.4C254 31.4 254.6 30.8 254.6 30.1C254.6 29.4 254 28.8 253.3 28.8C252.6 28.8 252 29.4 252 30.1C252 30.8 252.6 31.4 253.3 31.4Z" fill="white"/>
<path d="M267.7 31.4C268.4 31.4 269 30.8 269 30.1C269 29.4 268.4 28.8 267.7 28.8C267 28.8 266.4 29.4 266.4 30.1C266.4 30.8 267 31.4 267.7 31.4Z" fill="white"/>
<path d="M282.1 31.4C282.8 31.4 283.4 30.8 283.4 30.1C283.4 29.4 282.8 28.8 282.1 28.8C281.4 28.8 280.8 29.4 280.8 30.1C280.8 30.8 281.4 31.4 282.1 31.4Z" fill="white"/>
<path d="M296.5 31.4C297.2 31.4 297.8 30.8 297.8 30.1C297.8 29.4 297.2 28.8 296.5 28.8C295.8 28.8 295.2 29.4 295.2 30.1C295.2 30.8 295.8 31.4 296.5 31.4Z" fill="white"/>
<path d="M310.9 31.4C311.6 31.4 312.2 30.8 312.2 30.1C312.2 29.4 311.6 28.8 310.9 28.8C310.2 28.8 309.6 29.4 309.6 30.1C309.6 30.8 310.2 31.4 310.9 31.4Z" fill="white"/>
<path d="M1.3 45.7999C2 45.7999 2.6 45.2 2.6 44.5C2.6 43.8 2 43.2 1.3 43.2C0.6 43.2 0 43.8 0 44.5C0 45.2 0.6 45.7999 1.3 45.7999Z" fill="white"/>
<path d="M15.6999 45.7999C16.3999 45.7999 16.9999 45.2 16.9999 44.5C16.9999 43.8 16.3999 43.2 15.6999 43.2C14.9999 43.2 14.3999 43.8 14.3999 44.5C14.3999 45.2 14.9999 45.7999 15.6999 45.7999Z" fill="white"/>
<path d="M30.1 45.7999C30.8 45.7999 31.4 45.2 31.4 44.5C31.4 43.8 30.8 43.2 30.1 43.2C29.4 43.2 28.8 43.8 28.8 44.5C28.8 45.2 29.4 45.7999 30.1 45.7999Z" fill="white"/>
<path d="M44.5 45.7999C45.2 45.7999 45.7999 45.2 45.7999 44.5C45.7999 43.8 45.2 43.2 44.5 43.2C43.8 43.2 43.2 43.8 43.2 44.5C43.2 45.2 43.8 45.7999 44.5 45.7999Z" fill="white"/>
<path d="M58.9001 45.7999C59.6001 45.7999 60.2001 45.2 60.2001 44.5C60.2001 43.8 59.6001 43.2 58.9001 43.2C58.2001 43.2 57.6001 43.8 57.6001 44.5C57.6001 45.2 58.2001 45.7999 58.9001 45.7999Z" fill="white"/>
<path d="M73.3 45.7999C74 45.7999 74.6 45.2 74.6 44.5C74.6 43.8 74 43.2 73.3 43.2C72.6 43.2 72 43.8 72 44.5C72 45.2 72.6 45.7999 73.3 45.7999Z" fill="white"/>
<path d="M87.6999 45.7999C88.3999 45.7999 88.9999 45.2 88.9999 44.5C88.9999 43.8 88.3999 43.2 87.6999 43.2C86.9999 43.2 86.3999 43.8 86.3999 44.5C86.3999 45.2 86.9999 45.7999 87.6999 45.7999Z" fill="white"/>
<path d="M102.1 45.7999C102.8 45.7999 103.4 45.2 103.4 44.5C103.4 43.8 102.8 43.2 102.1 43.2C101.4 43.2 100.8 43.8 100.8 44.5C100.8 45.2 101.4 45.7999 102.1 45.7999Z" fill="white"/>
<path d="M116.5 45.7999C117.2 45.7999 117.8 45.2 117.8 44.5C117.8 43.8 117.2 43.2 116.5 43.2C115.8 43.2 115.2 43.8 115.2 44.5C115.2 45.2 115.8 45.7999 116.5 45.7999Z" fill="white"/>
<path d="M130.9 45.7999C131.6 45.7999 132.2 45.2 132.2 44.5C132.2 43.8 131.6 43.2 130.9 43.2C130.2 43.2 129.6 43.8 129.6 44.5C129.6 45.2 130.2 45.7999 130.9 45.7999Z" fill="white"/>
<path d="M145.3 45.7999C146 45.7999 146.6 45.2 146.6 44.5C146.6 43.8 146 43.2 145.3 43.2C144.6 43.2 144 43.8 144 44.5C144 45.2 144.6 45.7999 145.3 45.7999Z" fill="white"/>
<path d="M159.7 45.7999C160.4 45.7999 161 45.2 161 44.5C161 43.8 160.4 43.2 159.7 43.2C159 43.2 158.4 43.8 158.4 44.5C158.4 45.2 159 45.7999 159.7 45.7999Z" fill="white"/>
<path d="M174.1 45.7999C174.8 45.7999 175.4 45.2 175.4 44.5C175.4 43.8 174.8 43.2 174.1 43.2C173.4 43.2 172.8 43.8 172.8 44.5C172.8 45.2 173.4 45.7999 174.1 45.7999Z" fill="white"/>
<path d="M188.5 45.7999C189.2 45.7999 189.8 45.2 189.8 44.5C189.8 43.8 189.2 43.2 188.5 43.2C187.8 43.2 187.2 43.8 187.2 44.5C187.2 45.2 187.8 45.7999 188.5 45.7999Z" fill="white"/>
<path d="M202.9 45.7999C203.6 45.7999 204.2 45.2 204.2 44.5C204.2 43.8 203.6 43.2 202.9 43.2C202.2 43.2 201.6 43.8 201.6 44.5C201.6 45.2 202.2 45.7999 202.9 45.7999Z" fill="white"/>
<path d="M217.3 45.7999C218 45.7999 218.6 45.2 218.6 44.5C218.6 43.8 218 43.2 217.3 43.2C216.6 43.2 216 43.8 216 44.5C216 45.2 216.6 45.7999 217.3 45.7999Z" fill="white"/>
<path d="M231.7 45.7999C232.4 45.7999 233 45.2 233 44.5C233 43.8 232.4 43.2 231.7 43.2C231 43.2 230.4 43.8 230.4 44.5C230.4 45.2 231 45.7999 231.7 45.7999Z" fill="white"/>
<path d="M246.1 45.7999C246.8 45.7999 247.4 45.2 247.4 44.5C247.4 43.8 246.8 43.2 246.1 43.2C245.4 43.2 244.8 43.8 244.8 44.5C244.8 45.2 245.4 45.7999 246.1 45.7999Z" fill="white"/>
<path d="M260.5 45.7999C261.2 45.7999 261.8 45.2 261.8 44.5C261.8 43.8 261.2 43.2 260.5 43.2C259.8 43.2 259.2 43.8 259.2 44.5C259.2 45.2 259.8 45.7999 260.5 45.7999Z" fill="white"/>
<path d="M274.9 45.7999C275.6 45.7999 276.2 45.2 276.2 44.5C276.2 43.8 275.6 43.2 274.9 43.2C274.2 43.2 273.6 43.8 273.6 44.5C273.6 45.2 274.2 45.7999 274.9 45.7999Z" fill="white"/>
<path d="M289.3 45.7999C290 45.7999 290.6 45.2 290.6 44.5C290.6 43.8 290 43.2 289.3 43.2C288.6 43.2 288 43.8 288 44.5C288 45.2 288.6 45.7999 289.3 45.7999Z" fill="white"/>
<path d="M303.7 45.7999C304.4 45.7999 305 45.2 305 44.5C305 43.8 304.4 43.2 303.7 43.2C303 43.2 302.4 43.8 302.4 44.5C302.4 45.2 303 45.7999 303.7 45.7999Z" fill="white"/>
<path d="M8.49995 60.2C9.19995 60.2 9.79995 59.6 9.79995 58.9C9.79995 58.2 9.19995 57.6 8.49995 57.6C7.79995 57.6 7.19995 58.2 7.19995 58.9C7.19995 59.6 7.79995 60.2 8.49995 60.2Z" fill="white"/>
<path d="M22.9001 60.2C23.6001 60.2 24.2001 59.6 24.2001 58.9C24.2001 58.2 23.6001 57.6 22.9001 57.6C22.2001 57.6 21.6001 58.2 21.6001 58.9C21.6001 59.6 22.2001 60.2 22.9001 60.2Z" fill="white"/>
<path d="M37.3 60.2C38 60.2 38.6 59.6 38.6 58.9C38.6 58.2 38 57.6 37.3 57.6C36.6 57.6 36 58.2 36 58.9C36 59.6 36.6 60.2 37.3 60.2Z" fill="white"/>
<path d="M51.6999 60.2C52.3999 60.2 52.9999 59.6 52.9999 58.9C52.9999 58.2 52.3999 57.6 51.6999 57.6C50.9999 57.6 50.3999 58.2 50.3999 58.9C50.3999 59.6 50.9999 60.2 51.6999 60.2Z" fill="white"/>
<path d="M66.1 60.2C66.8 60.2 67.4 59.6 67.4 58.9C67.4 58.2 66.8 57.6 66.1 57.6C65.4 57.6 64.8 58.2 64.8 58.9C64.8 59.6 65.4 60.2 66.1 60.2Z" fill="white"/>
<path d="M80.5 60.2C81.2 60.2 81.8 59.6 81.8 58.9C81.8 58.2 81.2 57.6 80.5 57.6C79.8 57.6 79.2 58.2 79.2 58.9C79.2 59.6 79.8 60.2 80.5 60.2Z" fill="white"/>
<path d="M94.9001 60.2C95.6001 60.2 96.2001 59.6 96.2001 58.9C96.2001 58.2 95.6001 57.6 94.9001 57.6C94.2001 57.6 93.6001 58.2 93.6001 58.9C93.6001 59.6 94.2001 60.2 94.9001 60.2Z" fill="white"/>
<path d="M109.3 60.2C110 60.2 110.6 59.6 110.6 58.9C110.6 58.2 110 57.6 109.3 57.6C108.6 57.6 108 58.2 108 58.9C108 59.6 108.6 60.2 109.3 60.2Z" fill="white"/>
<path d="M123.7 60.2C124.4 60.2 125 59.6 125 58.9C125 58.2 124.4 57.6 123.7 57.6C123 57.6 122.4 58.2 122.4 58.9C122.4 59.6 123 60.2 123.7 60.2Z" fill="white"/>
<path d="M138.1 60.2C138.8 60.2 139.4 59.6 139.4 58.9C139.4 58.2 138.8 57.6 138.1 57.6C137.4 57.6 136.8 58.2 136.8 58.9C136.8 59.6 137.4 60.2 138.1 60.2Z" fill="white"/>
<path d="M152.5 60.2C153.2 60.2 153.8 59.6 153.8 58.9C153.8 58.2 153.2 57.6 152.5 57.6C151.8 57.6 151.2 58.2 151.2 58.9C151.2 59.6 151.8 60.2 152.5 60.2Z" fill="white"/>
<path d="M166.9 60.2C167.6 60.2 168.2 59.6 168.2 58.9C168.2 58.2 167.6 57.6 166.9 57.6C166.2 57.6 165.6 58.2 165.6 58.9C165.6 59.6 166.2 60.2 166.9 60.2Z" fill="white"/>
<path d="M181.3 60.2C182 60.2 182.6 59.6 182.6 58.9C182.6 58.2 182 57.6 181.3 57.6C180.6 57.6 180 58.2 180 58.9C180 59.6 180.6 60.2 181.3 60.2Z" fill="white"/>
<path d="M195.7 60.2C196.4 60.2 197 59.6 197 58.9C197 58.2 196.4 57.6 195.7 57.6C195 57.6 194.4 58.2 194.4 58.9C194.4 59.6 195 60.2 195.7 60.2Z" fill="white"/>
<path d="M210.1 60.2C210.8 60.2 211.4 59.6 211.4 58.9C211.4 58.2 210.8 57.6 210.1 57.6C209.4 57.6 208.8 58.2 208.8 58.9C208.8 59.6 209.4 60.2 210.1 60.2Z" fill="white"/>
<path d="M224.5 60.2C225.2 60.2 225.8 59.6 225.8 58.9C225.8 58.2 225.2 57.6 224.5 57.6C223.8 57.6 223.2 58.2 223.2 58.9C223.2 59.6 223.8 60.2 224.5 60.2Z" fill="white"/>
<path d="M238.9 60.2C239.6 60.2 240.2 59.6 240.2 58.9C240.2 58.2 239.6 57.6 238.9 57.6C238.2 57.6 237.6 58.2 237.6 58.9C237.6 59.6 238.2 60.2 238.9 60.2Z" fill="white"/>
<path d="M253.3 60.2C254 60.2 254.6 59.6 254.6 58.9C254.6 58.2 254 57.6 253.3 57.6C252.6 57.6 252 58.2 252 58.9C252 59.6 252.6 60.2 253.3 60.2Z" fill="white"/>
<path d="M267.7 60.2C268.4 60.2 269 59.6 269 58.9C269 58.2 268.4 57.6 267.7 57.6C267 57.6 266.4 58.2 266.4 58.9C266.4 59.6 267 60.2 267.7 60.2Z" fill="white"/>
<path d="M282.1 60.2C282.8 60.2 283.4 59.6 283.4 58.9C283.4 58.2 282.8 57.6 282.1 57.6C281.4 57.6 280.8 58.2 280.8 58.9C280.8 59.6 281.4 60.2 282.1 60.2Z" fill="white"/>
<path d="M296.5 60.2C297.2 60.2 297.8 59.6 297.8 58.9C297.8 58.2 297.2 57.6 296.5 57.6C295.8 57.6 295.2 58.2 295.2 58.9C295.2 59.6 295.8 60.2 296.5 60.2Z" fill="white"/>
<path d="M310.9 60.2C311.6 60.2 312.2 59.6 312.2 58.9C312.2 58.2 311.6 57.6 310.9 57.6C310.2 57.6 309.6 58.2 309.6 58.9C309.6 59.6 310.2 60.2 310.9 60.2Z" fill="white"/>
<path d="M1.3 74.6C2 74.6 2.6 74 2.6 73.3C2.6 72.6 2 72 1.3 72C0.6 72 0 72.6 0 73.3C0 74 0.6 74.6 1.3 74.6Z" fill="white"/>
<path d="M15.6999 74.6C16.4179 74.6 16.9999 74.018 16.9999 73.3C16.9999 72.582 16.4179 72 15.6999 72C14.9819 72 14.3999 72.582 14.3999 73.3C14.3999 74.018 14.9819 74.6 15.6999 74.6Z" fill="white"/>
<path d="M30.1 74.6C30.8 74.6 31.4 74 31.4 73.3C31.4 72.6 30.8 72 30.1 72C29.4 72 28.8 72.6 28.8 73.3C28.8 74 29.4 74.6 30.1 74.6Z" fill="white"/>
<path d="M44.5 74.6C45.2 74.6 45.7999 74 45.7999 73.3C45.7999 72.6 45.2 72 44.5 72C43.8 72 43.2 72.6 43.2 73.3C43.2 74 43.8 74.6 44.5 74.6Z" fill="white"/>
<path d="M58.9001 74.6C59.6001 74.6 60.2001 74 60.2001 73.3C60.2001 72.6 59.6001 72 58.9001 72C58.2001 72 57.6001 72.6 57.6001 73.3C57.6001 74 58.2001 74.6 58.9001 74.6Z" fill="white"/>
<path d="M73.3 74.6C74 74.6 74.6 74 74.6 73.3C74.6 72.6 74 72 73.3 72C72.6 72 72 72.6 72 73.3C72 74 72.6 74.6 73.3 74.6Z" fill="white"/>
<path d="M87.6999 74.6C88.4179 74.6 88.9999 74.018 88.9999 73.3C88.9999 72.582 88.4179 72 87.6999 72C86.9819 72 86.3999 72.582 86.3999 73.3C86.3999 74.018 86.9819 74.6 87.6999 74.6Z" fill="white"/>
<path d="M102.1 74.6C102.8 74.6 103.4 74 103.4 73.3C103.4 72.6 102.8 72 102.1 72C101.4 72 100.8 72.6 100.8 73.3C100.8 74 101.4 74.6 102.1 74.6Z" fill="white"/>
<path d="M116.5 74.6C117.2 74.6 117.8 74 117.8 73.3C117.8 72.6 117.2 72 116.5 72C115.8 72 115.2 72.6 115.2 73.3C115.2 74 115.8 74.6 116.5 74.6Z" fill="white"/>
<path d="M130.9 74.6C131.6 74.6 132.2 74 132.2 73.3C132.2 72.6 131.6 72 130.9 72C130.2 72 129.6 72.6 129.6 73.3C129.6 74 130.2 74.6 130.9 74.6Z" fill="white"/>
<path d="M145.3 74.6C146 74.6 146.6 74 146.6 73.3C146.6 72.6 146 72 145.3 72C144.6 72 144 72.6 144 73.3C144 74 144.6 74.6 145.3 74.6Z" fill="white"/>
<path d="M159.7 74.6C160.418 74.6 161 74.018 161 73.3C161 72.582 160.418 72 159.7 72C158.982 72 158.4 72.582 158.4 73.3C158.4 74.018 158.982 74.6 159.7 74.6Z" fill="white"/>
<path d="M174.1 74.6C174.8 74.6 175.4 74 175.4 73.3C175.4 72.6 174.8 72 174.1 72C173.4 72 172.8 72.6 172.8 73.3C172.8 74 173.4 74.6 174.1 74.6Z" fill="white"/>
<path d="M188.5 74.6C189.2 74.6 189.8 74 189.8 73.3C189.8 72.6 189.2 72 188.5 72C187.8 72 187.2 72.6 187.2 73.3C187.2 74 187.8 74.6 188.5 74.6Z" fill="white"/>
<path d="M202.9 74.6C203.6 74.6 204.2 74 204.2 73.3C204.2 72.6 203.6 72 202.9 72C202.2 72 201.6 72.6 201.6 73.3C201.6 74 202.2 74.6 202.9 74.6Z" fill="white"/>
<path d="M217.3 74.6C218 74.6 218.6 74 218.6 73.3C218.6 72.6 218 72 217.3 72C216.6 72 216 72.6 216 73.3C216 74 216.6 74.6 217.3 74.6Z" fill="white"/>
<path d="M231.7 74.6C232.418 74.6 233 74.018 233 73.3C233 72.582 232.418 72 231.7 72C230.982 72 230.4 72.582 230.4 73.3C230.4 74.018 230.982 74.6 231.7 74.6Z" fill="white"/>
<path d="M246.1 74.6C246.8 74.6 247.4 74 247.4 73.3C247.4 72.6 246.8 72 246.1 72C245.4 72 244.8 72.6 244.8 73.3C244.8 74 245.4 74.6 246.1 74.6Z" fill="white"/>
<path d="M260.5 74.6C261.2 74.6 261.8 74 261.8 73.3C261.8 72.6 261.2 72 260.5 72C259.8 72 259.2 72.6 259.2 73.3C259.2 74 259.8 74.6 260.5 74.6Z" fill="white"/>
<path d="M274.9 74.6C275.6 74.6 276.2 74 276.2 73.3C276.2 72.6 275.6 72 274.9 72C274.2 72 273.6 72.6 273.6 73.3C273.6 74 274.2 74.6 274.9 74.6Z" fill="white"/>
<path d="M289.3 74.6C290 74.6 290.6 74 290.6 73.3C290.6 72.6 290 72 289.3 72C288.6 72 288 72.6 288 73.3C288 74 288.6 74.6 289.3 74.6Z" fill="white"/>
<path d="M303.7 74.6C304.418 74.6 305 74.018 305 73.3C305 72.582 304.418 72 303.7 72C302.982 72 302.4 72.582 302.4 73.3C302.4 74.018 302.982 74.6 303.7 74.6Z" fill="white"/>
<path d="M8.49995 89C9.19995 89 9.79995 88.4 9.79995 87.7C9.79995 87 9.19995 86.4 8.49995 86.4C7.79995 86.4 7.19995 87 7.19995 87.7C7.19995 88.4 7.79995 89 8.49995 89Z" fill="white"/>
<path d="M22.9001 89C23.6001 89 24.2001 88.4 24.2001 87.7C24.2001 87 23.6001 86.4 22.9001 86.4C22.2001 86.4 21.6001 87 21.6001 87.7C21.6001 88.4 22.2001 89 22.9001 89Z" fill="white"/>
<path d="M37.3 89C38 89 38.6 88.4 38.6 87.7C38.6 87 38 86.4 37.3 86.4C36.6 86.4 36 87 36 87.7C36 88.4 36.6 89 37.3 89Z" fill="white"/>
<path d="M51.6999 89C52.4179 89 52.9999 88.418 52.9999 87.7C52.9999 86.982 52.4179 86.4 51.6999 86.4C50.9819 86.4 50.3999 86.982 50.3999 87.7C50.3999 88.418 50.9819 89 51.6999 89Z" fill="white"/>
<path d="M66.1 89C66.8 89 67.4 88.4 67.4 87.7C67.4 87 66.8 86.4 66.1 86.4C65.4 86.4 64.8 87 64.8 87.7C64.8 88.4 65.4 89 66.1 89Z" fill="white"/>
<path d="M80.5 89C81.2 89 81.8 88.4 81.8 87.7C81.8 87 81.2 86.4 80.5 86.4C79.8 86.4 79.2 87 79.2 87.7C79.2 88.4 79.8 89 80.5 89Z" fill="white"/>
<path d="M94.9001 89C95.6001 89 96.2001 88.4 96.2001 87.7C96.2001 87 95.6001 86.4 94.9001 86.4C94.2001 86.4 93.6001 87 93.6001 87.7C93.6001 88.4 94.2001 89 94.9001 89Z" fill="white"/>
<path d="M109.3 89C110 89 110.6 88.4 110.6 87.7C110.6 87 110 86.4 109.3 86.4C108.6 86.4 108 87 108 87.7C108 88.4 108.6 89 109.3 89Z" fill="white"/>
<path d="M123.7 89C124.418 89 125 88.418 125 87.7C125 86.982 124.418 86.4 123.7 86.4C122.982 86.4 122.4 86.982 122.4 87.7C122.4 88.418 122.982 89 123.7 89Z" fill="white"/>
<path d="M138.1 89C138.8 89 139.4 88.4 139.4 87.7C139.4 87 138.8 86.4 138.1 86.4C137.4 86.4 136.8 87 136.8 87.7C136.8 88.4 137.4 89 138.1 89Z" fill="white"/>
<path d="M152.5 89C153.2 89 153.8 88.4 153.8 87.7C153.8 87 153.2 86.4 152.5 86.4C151.8 86.4 151.2 87 151.2 87.7C151.2 88.4 151.8 89 152.5 89Z" fill="white"/>
<path d="M166.9 89C167.6 89 168.2 88.4 168.2 87.7C168.2 87 167.6 86.4 166.9 86.4C166.2 86.4 165.6 87 165.6 87.7C165.6 88.4 166.2 89 166.9 89Z" fill="white"/>
<path d="M181.3 89C182 89 182.6 88.4 182.6 87.7C182.6 87 182 86.4 181.3 86.4C180.6 86.4 180 87 180 87.7C180 88.4 180.6 89 181.3 89Z" fill="white"/>
<path d="M195.7 89C196.418 89 197 88.418 197 87.7C197 86.982 196.418 86.4 195.7 86.4C194.982 86.4 194.4 86.982 194.4 87.7C194.4 88.418 194.982 89 195.7 89Z" fill="white"/>
<path d="M210.1 89C210.8 89 211.4 88.4 211.4 87.7C211.4 87 210.8 86.4 210.1 86.4C209.4 86.4 208.8 87 208.8 87.7C208.8 88.4 209.4 89 210.1 89Z" fill="white"/>
<path d="M224.5 89C225.2 89 225.8 88.4 225.8 87.7C225.8 87 225.2 86.4 224.5 86.4C223.8 86.4 223.2 87 223.2 87.7C223.2 88.4 223.8 89 224.5 89Z" fill="white"/>
<path d="M238.9 89C239.6 89 240.2 88.4 240.2 87.7C240.2 87 239.6 86.4 238.9 86.4C238.2 86.4 237.6 87 237.6 87.7C237.6 88.4 238.2 89 238.9 89Z" fill="white"/>
<path d="M253.3 89C254 89 254.6 88.4 254.6 87.7C254.6 87 254 86.4 253.3 86.4C252.6 86.4 252 87 252 87.7C252 88.4 252.6 89 253.3 89Z" fill="white"/>
<path d="M267.7 89C268.418 89 269 88.418 269 87.7C269 86.982 268.418 86.4 267.7 86.4C266.982 86.4 266.4 86.982 266.4 87.7C266.4 88.418 266.982 89 267.7 89Z" fill="white"/>
<path d="M282.1 89C282.8 89 283.4 88.4 283.4 87.7C283.4 87 282.8 86.4 282.1 86.4C281.4 86.4 280.8 87 280.8 87.7C280.8 88.4 281.4 89 282.1 89Z" fill="white"/>
<path d="M296.5 89C297.2 89 297.8 88.4 297.8 87.7C297.8 87 297.2 86.4 296.5 86.4C295.8 86.4 295.2 87 295.2 87.7C295.2 88.4 295.8 89 296.5 89Z" fill="white"/>
<path d="M310.9 89C311.6 89 312.2 88.4 312.2 87.7C312.2 87 311.6 86.4 310.9 86.4C310.2 86.4 309.6 87 309.6 87.7C309.6 88.4 310.2 89 310.9 89Z" fill="white"/>
<path d="M1.3 103.4C2 103.4 2.6 102.8 2.6 102.1C2.6 101.4 2 100.8 1.3 100.8C0.6 100.8 0 101.4 0 102.1C0 102.8 0.6 103.4 1.3 103.4Z" fill="white"/>
<path d="M15.6999 103.4C16.3999 103.4 16.9999 102.8 16.9999 102.1C16.9999 101.4 16.3999 100.8 15.6999 100.8C14.9999 100.8 14.3999 101.4 14.3999 102.1C14.3999 102.8 14.9999 103.4 15.6999 103.4Z" fill="white"/>
<path d="M30.1 103.4C30.8 103.4 31.4 102.8 31.4 102.1C31.4 101.4 30.8 100.8 30.1 100.8C29.4 100.8 28.8 101.4 28.8 102.1C28.8 102.8 29.4 103.4 30.1 103.4Z" fill="white"/>
<path d="M44.5 103.4C45.2 103.4 45.7999 102.8 45.7999 102.1C45.7999 101.4 45.2 100.8 44.5 100.8C43.8 100.8 43.2 101.4 43.2 102.1C43.2 102.8 43.8 103.4 44.5 103.4Z" fill="white"/>
<path d="M58.9001 103.4C59.6001 103.4 60.2001 102.8 60.2001 102.1C60.2001 101.4 59.6001 100.8 58.9001 100.8C58.2001 100.8 57.6001 101.4 57.6001 102.1C57.6001 102.8 58.2001 103.4 58.9001 103.4Z" fill="white"/>
<path d="M73.3 103.4C74 103.4 74.6 102.8 74.6 102.1C74.6 101.4 74 100.8 73.3 100.8C72.6 100.8 72 101.4 72 102.1C72 102.8 72.6 103.4 73.3 103.4Z" fill="white"/>
<path d="M87.6999 103.4C88.3999 103.4 88.9999 102.8 88.9999 102.1C88.9999 101.4 88.3999 100.8 87.6999 100.8C86.9999 100.8 86.3999 101.4 86.3999 102.1C86.3999 102.8 86.9999 103.4 87.6999 103.4Z" fill="white"/>
<path d="M102.1 103.4C102.8 103.4 103.4 102.8 103.4 102.1C103.4 101.4 102.8 100.8 102.1 100.8C101.4 100.8 100.8 101.4 100.8 102.1C100.8 102.8 101.4 103.4 102.1 103.4Z" fill="white"/>
<path d="M116.5 103.4C117.2 103.4 117.8 102.8 117.8 102.1C117.8 101.4 117.2 100.8 116.5 100.8C115.8 100.8 115.2 101.4 115.2 102.1C115.2 102.8 115.8 103.4 116.5 103.4Z" fill="white"/>
<path d="M130.9 103.4C131.6 103.4 132.2 102.8 132.2 102.1C132.2 101.4 131.6 100.8 130.9 100.8C130.2 100.8 129.6 101.4 129.6 102.1C129.6 102.8 130.2 103.4 130.9 103.4Z" fill="white"/>
<path d="M145.3 103.4C146 103.4 146.6 102.8 146.6 102.1C146.6 101.4 146 100.8 145.3 100.8C144.6 100.8 144 101.4 144 102.1C144 102.8 144.6 103.4 145.3 103.4Z" fill="white"/>
<path d="M159.7 103.4C160.4 103.4 161 102.8 161 102.1C161 101.4 160.4 100.8 159.7 100.8C159 100.8 158.4 101.4 158.4 102.1C158.4 102.8 159 103.4 159.7 103.4Z" fill="white"/>
<path d="M174.1 103.4C174.8 103.4 175.4 102.8 175.4 102.1C175.4 101.4 174.8 100.8 174.1 100.8C173.4 100.8 172.8 101.4 172.8 102.1C172.8 102.8 173.4 103.4 174.1 103.4Z" fill="white"/>
<path d="M188.5 103.4C189.2 103.4 189.8 102.8 189.8 102.1C189.8 101.4 189.2 100.8 188.5 100.8C187.8 100.8 187.2 101.4 187.2 102.1C187.2 102.8 187.8 103.4 188.5 103.4Z" fill="white"/>
<path d="M202.9 103.4C203.6 103.4 204.2 102.8 204.2 102.1C204.2 101.4 203.6 100.8 202.9 100.8C202.2 100.8 201.6 101.4 201.6 102.1C201.6 102.8 202.2 103.4 202.9 103.4Z" fill="white"/>
<path d="M217.3 103.4C218 103.4 218.6 102.8 218.6 102.1C218.6 101.4 218 100.8 217.3 100.8C216.6 100.8 216 101.4 216 102.1C216 102.8 216.6 103.4 217.3 103.4Z" fill="white"/>
<path d="M231.7 103.4C232.4 103.4 233 102.8 233 102.1C233 101.4 232.4 100.8 231.7 100.8C231 100.8 230.4 101.4 230.4 102.1C230.4 102.8 231 103.4 231.7 103.4Z" fill="white"/>
<path d="M246.1 103.4C246.8 103.4 247.4 102.8 247.4 102.1C247.4 101.4 246.8 100.8 246.1 100.8C245.4 100.8 244.8 101.4 244.8 102.1C244.8 102.8 245.4 103.4 246.1 103.4Z" fill="white"/>
<path d="M260.5 103.4C261.2 103.4 261.8 102.8 261.8 102.1C261.8 101.4 261.2 100.8 260.5 100.8C259.8 100.8 259.2 101.4 259.2 102.1C259.2 102.8 259.8 103.4 260.5 103.4Z" fill="white"/>
<path d="M274.9 103.4C275.6 103.4 276.2 102.8 276.2 102.1C276.2 101.4 275.6 100.8 274.9 100.8C274.2 100.8 273.6 101.4 273.6 102.1C273.6 102.8 274.2 103.4 274.9 103.4Z" fill="white"/>
<path d="M289.3 103.4C290 103.4 290.6 102.8 290.6 102.1C290.6 101.4 290 100.8 289.3 100.8C288.6 100.8 288 101.4 288 102.1C288 102.8 288.6 103.4 289.3 103.4Z" fill="white"/>
<path d="M303.7 103.4C304.4 103.4 305 102.8 305 102.1C305 101.4 304.4 100.8 303.7 100.8C303 100.8 302.4 101.4 302.4 102.1C302.4 102.8 303 103.4 303.7 103.4Z" fill="white"/>
<path d="M8.49995 117.8C9.19995 117.8 9.79995 117.2 9.79995 116.5C9.79995 115.8 9.19995 115.2 8.49995 115.2C7.79995 115.2 7.19995 115.8 7.19995 116.5C7.19995 117.2 7.79995 117.8 8.49995 117.8Z" fill="white"/>
<path d="M22.9001 117.8C23.6001 117.8 24.2001 117.2 24.2001 116.5C24.2001 115.8 23.6001 115.2 22.9001 115.2C22.2001 115.2 21.6001 115.8 21.6001 116.5C21.6001 117.2 22.2001 117.8 22.9001 117.8Z" fill="white"/>
<path d="M37.3 117.8C38 117.8 38.6 117.2 38.6 116.5C38.6 115.8 38 115.2 37.3 115.2C36.6 115.2 36 115.8 36 116.5C36 117.2 36.6 117.8 37.3 117.8Z" fill="white"/>
<path d="M51.6999 117.8C52.3999 117.8 52.9999 117.2 52.9999 116.5C52.9999 115.8 52.3999 115.2 51.6999 115.2C50.9999 115.2 50.3999 115.8 50.3999 116.5C50.3999 117.2 50.9999 117.8 51.6999 117.8Z" fill="white"/>
<path d="M66.1 117.8C66.8 117.8 67.4 117.2 67.4 116.5C67.4 115.8 66.8 115.2 66.1 115.2C65.4 115.2 64.8 115.8 64.8 116.5C64.8 117.2 65.4 117.8 66.1 117.8Z" fill="white"/>
<path d="M80.5 117.8C81.2 117.8 81.8 117.2 81.8 116.5C81.8 115.8 81.2 115.2 80.5 115.2C79.8 115.2 79.2 115.8 79.2 116.5C79.2 117.2 79.8 117.8 80.5 117.8Z" fill="white"/>
<path d="M94.9001 117.8C95.6001 117.8 96.2001 117.2 96.2001 116.5C96.2001 115.8 95.6001 115.2 94.9001 115.2C94.2001 115.2 93.6001 115.8 93.6001 116.5C93.6001 117.2 94.2001 117.8 94.9001 117.8Z" fill="white"/>
<path d="M109.3 117.8C110 117.8 110.6 117.2 110.6 116.5C110.6 115.8 110 115.2 109.3 115.2C108.6 115.2 108 115.8 108 116.5C108 117.2 108.6 117.8 109.3 117.8Z" fill="white"/>
<path d="M123.7 117.8C124.4 117.8 125 117.2 125 116.5C125 115.8 124.4 115.2 123.7 115.2C123 115.2 122.4 115.8 122.4 116.5C122.4 117.2 123 117.8 123.7 117.8Z" fill="white"/>
<path d="M138.1 117.8C138.8 117.8 139.4 117.2 139.4 116.5C139.4 115.8 138.8 115.2 138.1 115.2C137.4 115.2 136.8 115.8 136.8 116.5C136.8 117.2 137.4 117.8 138.1 117.8Z" fill="white"/>
<path d="M152.5 117.8C153.2 117.8 153.8 117.2 153.8 116.5C153.8 115.8 153.2 115.2 152.5 115.2C151.8 115.2 151.2 115.8 151.2 116.5C151.2 117.2 151.8 117.8 152.5 117.8Z" fill="white"/>
<path d="M166.9 117.8C167.6 117.8 168.2 117.2 168.2 116.5C168.2 115.8 167.6 115.2 166.9 115.2C166.2 115.2 165.6 115.8 165.6 116.5C165.6 117.2 166.2 117.8 166.9 117.8Z" fill="white"/>
<path d="M181.3 117.8C182 117.8 182.6 117.2 182.6 116.5C182.6 115.8 182 115.2 181.3 115.2C180.6 115.2 180 115.8 180 116.5C180 117.2 180.6 117.8 181.3 117.8Z" fill="white"/>
<path d="M195.7 117.8C196.4 117.8 197 117.2 197 116.5C197 115.8 196.4 115.2 195.7 115.2C195 115.2 194.4 115.8 194.4 116.5C194.4 117.2 195 117.8 195.7 117.8Z" fill="white"/>
<path d="M210.1 117.8C210.8 117.8 211.4 117.2 211.4 116.5C211.4 115.8 210.8 115.2 210.1 115.2C209.4 115.2 208.8 115.8 208.8 116.5C208.8 117.2 209.4 117.8 210.1 117.8Z" fill="white"/>
<path d="M224.5 117.8C225.2 117.8 225.8 117.2 225.8 116.5C225.8 115.8 225.2 115.2 224.5 115.2C223.8 115.2 223.2 115.8 223.2 116.5C223.2 117.2 223.8 117.8 224.5 117.8Z" fill="white"/>
<path d="M238.9 117.8C239.6 117.8 240.2 117.2 240.2 116.5C240.2 115.8 239.6 115.2 238.9 115.2C238.2 115.2 237.6 115.8 237.6 116.5C237.6 117.2 238.2 117.8 238.9 117.8Z" fill="white"/>
<path d="M253.3 117.8C254 117.8 254.6 117.2 254.6 116.5C254.6 115.8 254 115.2 253.3 115.2C252.6 115.2 252 115.8 252 116.5C252 117.2 252.6 117.8 253.3 117.8Z" fill="white"/>
<path d="M267.7 117.8C268.4 117.8 269 117.2 269 116.5C269 115.8 268.4 115.2 267.7 115.2C267 115.2 266.4 115.8 266.4 116.5C266.4 117.2 267 117.8 267.7 117.8Z" fill="white"/>
<path d="M282.1 117.8C282.8 117.8 283.4 117.2 283.4 116.5C283.4 115.8 282.8 115.2 282.1 115.2C281.4 115.2 280.8 115.8 280.8 116.5C280.8 117.2 281.4 117.8 282.1 117.8Z" fill="white"/>
<path d="M296.5 117.8C297.2 117.8 297.8 117.2 297.8 116.5C297.8 115.8 297.2 115.2 296.5 115.2C295.8 115.2 295.2 115.8 295.2 116.5C295.2 117.2 295.8 117.8 296.5 117.8Z" fill="white"/>
<path d="M310.9 117.8C311.6 117.8 312.2 117.2 312.2 116.5C312.2 115.8 311.6 115.2 310.9 115.2C310.2 115.2 309.6 115.8 309.6 116.5C309.6 117.2 310.2 117.8 310.9 117.8Z" fill="white"/>
<path d="M1.3 132.2C2 132.2 2.6 131.6 2.6 130.9C2.6 130.2 2 129.6 1.3 129.6C0.6 129.6 0 130.2 0 130.9C0 131.6 0.6 132.2 1.3 132.2Z" fill="white"/>
<path d="M15.6999 132.2C16.3999 132.2 16.9999 131.6 16.9999 130.9C16.9999 130.2 16.3999 129.6 15.6999 129.6C14.9999 129.6 14.3999 130.2 14.3999 130.9C14.3999 131.6 14.9999 132.2 15.6999 132.2Z" fill="white"/>
<path d="M30.1 132.2C30.8 132.2 31.4 131.6 31.4 130.9C31.4 130.2 30.8 129.6 30.1 129.6C29.4 129.6 28.8 130.2 28.8 130.9C28.8 131.6 29.4 132.2 30.1 132.2Z" fill="white"/>
<path d="M44.5 132.2C45.2 132.2 45.7999 131.6 45.7999 130.9C45.7999 130.2 45.2 129.6 44.5 129.6C43.8 129.6 43.2 130.2 43.2 130.9C43.2 131.6 43.8 132.2 44.5 132.2Z" fill="white"/>
<path d="M58.9001 132.2C59.6001 132.2 60.2001 131.6 60.2001 130.9C60.2001 130.2 59.6001 129.6 58.9001 129.6C58.2001 129.6 57.6001 130.2 57.6001 130.9C57.6001 131.6 58.2001 132.2 58.9001 132.2Z" fill="white"/>
<path d="M73.3 132.2C74 132.2 74.6 131.6 74.6 130.9C74.6 130.2 74 129.6 73.3 129.6C72.6 129.6 72 130.2 72 130.9C72 131.6 72.6 132.2 73.3 132.2Z" fill="white"/>
<path d="M87.6999 132.2C88.3999 132.2 88.9999 131.6 88.9999 130.9C88.9999 130.2 88.3999 129.6 87.6999 129.6C86.9999 129.6 86.3999 130.2 86.3999 130.9C86.3999 131.6 86.9999 132.2 87.6999 132.2Z" fill="white"/>
<path d="M102.1 132.2C102.8 132.2 103.4 131.6 103.4 130.9C103.4 130.2 102.8 129.6 102.1 129.6C101.4 129.6 100.8 130.2 100.8 130.9C100.8 131.6 101.4 132.2 102.1 132.2Z" fill="white"/>
<path d="M116.5 132.2C117.2 132.2 117.8 131.6 117.8 130.9C117.8 130.2 117.2 129.6 116.5 129.6C115.8 129.6 115.2 130.2 115.2 130.9C115.2 131.6 115.8 132.2 116.5 132.2Z" fill="white"/>
<path d="M130.9 132.2C131.6 132.2 132.2 131.6 132.2 130.9C132.2 130.2 131.6 129.6 130.9 129.6C130.2 129.6 129.6 130.2 129.6 130.9C129.6 131.6 130.2 132.2 130.9 132.2Z" fill="white"/>
<path d="M145.3 132.2C146 132.2 146.6 131.6 146.6 130.9C146.6 130.2 146 129.6 145.3 129.6C144.6 129.6 144 130.2 144 130.9C144 131.6 144.6 132.2 145.3 132.2Z" fill="white"/>
<path d="M159.7 132.2C160.4 132.2 161 131.6 161 130.9C161 130.2 160.4 129.6 159.7 129.6C159 129.6 158.4 130.2 158.4 130.9C158.4 131.6 159 132.2 159.7 132.2Z" fill="white"/>
<path d="M174.1 132.2C174.8 132.2 175.4 131.6 175.4 130.9C175.4 130.2 174.8 129.6 174.1 129.6C173.4 129.6 172.8 130.2 172.8 130.9C172.8 131.6 173.4 132.2 174.1 132.2Z" fill="white"/>
<path d="M188.5 132.2C189.2 132.2 189.8 131.6 189.8 130.9C189.8 130.2 189.2 129.6 188.5 129.6C187.8 129.6 187.2 130.2 187.2 130.9C187.2 131.6 187.8 132.2 188.5 132.2Z" fill="white"/>
<path d="M202.9 132.2C203.6 132.2 204.2 131.6 204.2 130.9C204.2 130.2 203.6 129.6 202.9 129.6C202.2 129.6 201.6 130.2 201.6 130.9C201.6 131.6 202.2 132.2 202.9 132.2Z" fill="white"/>
<path d="M217.3 132.2C218 132.2 218.6 131.6 218.6 130.9C218.6 130.2 218 129.6 217.3 129.6C216.6 129.6 216 130.2 216 130.9C216 131.6 216.6 132.2 217.3 132.2Z" fill="white"/>
<path d="M231.7 132.2C232.4 132.2 233 131.6 233 130.9C233 130.2 232.4 129.6 231.7 129.6C231 129.6 230.4 130.2 230.4 130.9C230.4 131.6 231 132.2 231.7 132.2Z" fill="white"/>
<path d="M246.1 132.2C246.8 132.2 247.4 131.6 247.4 130.9C247.4 130.2 246.8 129.6 246.1 129.6C245.4 129.6 244.8 130.2 244.8 130.9C244.8 131.6 245.4 132.2 246.1 132.2Z" fill="white"/>
<path d="M260.5 132.2C261.2 132.2 261.8 131.6 261.8 130.9C261.8 130.2 261.2 129.6 260.5 129.6C259.8 129.6 259.2 130.2 259.2 130.9C259.2 131.6 259.8 132.2 260.5 132.2Z" fill="white"/>
<path d="M274.9 132.2C275.6 132.2 276.2 131.6 276.2 130.9C276.2 130.2 275.6 129.6 274.9 129.6C274.2 129.6 273.6 130.2 273.6 130.9C273.6 131.6 274.2 132.2 274.9 132.2Z" fill="white"/>
<path d="M289.3 132.2C290 132.2 290.6 131.6 290.6 130.9C290.6 130.2 290 129.6 289.3 129.6C288.6 129.6 288 130.2 288 130.9C288 131.6 288.6 132.2 289.3 132.2Z" fill="white"/>
<path d="M303.7 132.2C304.4 132.2 305 131.6 305 130.9C305 130.2 304.4 129.6 303.7 129.6C303 129.6 302.4 130.2 302.4 130.9C302.4 131.6 303 132.2 303.7 132.2Z" fill="white"/>
<path d="M8.49995 146.6C9.19995 146.6 9.79995 146 9.79995 145.3C9.79995 144.6 9.19995 144 8.49995 144C7.79995 144 7.19995 144.6 7.19995 145.3C7.19995 146 7.79995 146.6 8.49995 146.6Z" fill="white"/>
<path d="M22.9001 146.6C23.6001 146.6 24.2001 146 24.2001 145.3C24.2001 144.6 23.6001 144 22.9001 144C22.2001 144 21.6001 144.6 21.6001 145.3C21.6001 146 22.2001 146.6 22.9001 146.6Z" fill="white"/>
<path d="M37.3 146.6C38 146.6 38.6 146 38.6 145.3C38.6 144.6 38 144 37.3 144C36.6 144 36 144.6 36 145.3C36 146 36.6 146.6 37.3 146.6Z" fill="white"/>
<path d="M51.6999 146.6C52.4179 146.6 52.9999 146.018 52.9999 145.3C52.9999 144.582 52.4179 144 51.6999 144C50.9819 144 50.3999 144.582 50.3999 145.3C50.3999 146.018 50.9819 146.6 51.6999 146.6Z" fill="white"/>
<path d="M66.1 146.6C66.8 146.6 67.4 146 67.4 145.3C67.4 144.6 66.8 144 66.1 144C65.4 144 64.8 144.6 64.8 145.3C64.8 146 65.4 146.6 66.1 146.6Z" fill="white"/>
<path d="M80.5 146.6C81.2 146.6 81.8 146 81.8 145.3C81.8 144.6 81.2 144 80.5 144C79.8 144 79.2 144.6 79.2 145.3C79.2 146 79.8 146.6 80.5 146.6Z" fill="white"/>
<path d="M94.9001 146.6C95.6001 146.6 96.2001 146 96.2001 145.3C96.2001 144.6 95.6001 144 94.9001 144C94.2001 144 93.6001 144.6 93.6001 145.3C93.6001 146 94.2001 146.6 94.9001 146.6Z" fill="white"/>
<path d="M109.3 146.6C110 146.6 110.6 146 110.6 145.3C110.6 144.6 110 144 109.3 144C108.6 144 108 144.6 108 145.3C108 146 108.6 146.6 109.3 146.6Z" fill="white"/>
<path d="M123.7 146.6C124.418 146.6 125 146.018 125 145.3C125 144.582 124.418 144 123.7 144C122.982 144 122.4 144.582 122.4 145.3C122.4 146.018 122.982 146.6 123.7 146.6Z" fill="white"/>
<path d="M138.1 146.6C138.8 146.6 139.4 146 139.4 145.3C139.4 144.6 138.8 144 138.1 144C137.4 144 136.8 144.6 136.8 145.3C136.8 146 137.4 146.6 138.1 146.6Z" fill="white"/>
<path d="M152.5 146.6C153.2 146.6 153.8 146 153.8 145.3C153.8 144.6 153.2 144 152.5 144C151.8 144 151.2 144.6 151.2 145.3C151.2 146 151.8 146.6 152.5 146.6Z" fill="white"/>
<path d="M166.9 146.6C167.6 146.6 168.2 146 168.2 145.3C168.2 144.6 167.6 144 166.9 144C166.2 144 165.6 144.6 165.6 145.3C165.6 146 166.2 146.6 166.9 146.6Z" fill="white"/>
<path d="M181.3 146.6C182 146.6 182.6 146 182.6 145.3C182.6 144.6 182 144 181.3 144C180.6 144 180 144.6 180 145.3C180 146 180.6 146.6 181.3 146.6Z" fill="white"/>
<path d="M195.7 146.6C196.418 146.6 197 146.018 197 145.3C197 144.582 196.418 144 195.7 144C194.982 144 194.4 144.582 194.4 145.3C194.4 146.018 194.982 146.6 195.7 146.6Z" fill="white"/>
<path d="M210.1 146.6C210.8 146.6 211.4 146 211.4 145.3C211.4 144.6 210.8 144 210.1 144C209.4 144 208.8 144.6 208.8 145.3C208.8 146 209.4 146.6 210.1 146.6Z" fill="white"/>
<path d="M224.5 146.6C225.2 146.6 225.8 146 225.8 145.3C225.8 144.6 225.2 144 224.5 144C223.8 144 223.2 144.6 223.2 145.3C223.2 146 223.8 146.6 224.5 146.6Z" fill="white"/>
<path d="M238.9 146.6C239.6 146.6 240.2 146 240.2 145.3C240.2 144.6 239.6 144 238.9 144C238.2 144 237.6 144.6 237.6 145.3C237.6 146 238.2 146.6 238.9 146.6Z" fill="white"/>
<path d="M253.3 146.6C254 146.6 254.6 146 254.6 145.3C254.6 144.6 254 144 253.3 144C252.6 144 252 144.6 252 145.3C252 146 252.6 146.6 253.3 146.6Z" fill="white"/>
<path d="M267.7 146.6C268.418 146.6 269 146.018 269 145.3C269 144.582 268.418 144 267.7 144C266.982 144 266.4 144.582 266.4 145.3C266.4 146.018 266.982 146.6 267.7 146.6Z" fill="white"/>
<path d="M282.1 146.6C282.8 146.6 283.4 146 283.4 145.3C283.4 144.6 282.8 144 282.1 144C281.4 144 280.8 144.6 280.8 145.3C280.8 146 281.4 146.6 282.1 146.6Z" fill="white"/>
<path d="M296.5 146.6C297.2 146.6 297.8 146 297.8 145.3C297.8 144.6 297.2 144 296.5 144C295.8 144 295.2 144.6 295.2 145.3C295.2 146 295.8 146.6 296.5 146.6Z" fill="white"/>
<path d="M310.9 146.6C311.6 146.6 312.2 146 312.2 145.3C312.2 144.6 311.6 144 310.9 144C310.2 144 309.6 144.6 309.6 145.3C309.6 146 310.2 146.6 310.9 146.6Z" fill="white"/>
<path d="M1.3 161C2 161 2.6 160.4 2.6 159.7C2.6 159 2 158.4 1.3 158.4C0.6 158.4 0 159 0 159.7C0 160.4 0.6 161 1.3 161Z" fill="white"/>
<path d="M15.6999 161C16.4179 161 16.9999 160.418 16.9999 159.7C16.9999 158.982 16.4179 158.4 15.6999 158.4C14.9819 158.4 14.3999 158.982 14.3999 159.7C14.3999 160.418 14.9819 161 15.6999 161Z" fill="white"/>
<path d="M30.1 161C30.8 161 31.4 160.4 31.4 159.7C31.4 159 30.8 158.4 30.1 158.4C29.4 158.4 28.8 159 28.8 159.7C28.8 160.4 29.4 161 30.1 161Z" fill="white"/>
<path d="M44.5 161C45.2 161 45.7999 160.4 45.7999 159.7C45.7999 159 45.2 158.4 44.5 158.4C43.8 158.4 43.2 159 43.2 159.7C43.2 160.4 43.8 161 44.5 161Z" fill="white"/>
<path d="M58.9001 161C59.6001 161 60.2001 160.4 60.2001 159.7C60.2001 159 59.6001 158.4 58.9001 158.4C58.2001 158.4 57.6001 159 57.6001 159.7C57.6001 160.4 58.2001 161 58.9001 161Z" fill="white"/>
<path d="M73.3 161C74 161 74.6 160.4 74.6 159.7C74.6 159 74 158.4 73.3 158.4C72.6 158.4 72 159 72 159.7C72 160.4 72.6 161 73.3 161Z" fill="white"/>
<path d="M87.6999 161C88.4179 161 88.9999 160.418 88.9999 159.7C88.9999 158.982 88.4179 158.4 87.6999 158.4C86.9819 158.4 86.3999 158.982 86.3999 159.7C86.3999 160.418 86.9819 161 87.6999 161Z" fill="white"/>
<path d="M102.1 161C102.8 161 103.4 160.4 103.4 159.7C103.4 159 102.8 158.4 102.1 158.4C101.4 158.4 100.8 159 100.8 159.7C100.8 160.4 101.4 161 102.1 161Z" fill="white"/>
<path d="M116.5 161C117.2 161 117.8 160.4 117.8 159.7C117.8 159 117.2 158.4 116.5 158.4C115.8 158.4 115.2 159 115.2 159.7C115.2 160.4 115.8 161 116.5 161Z" fill="white"/>
<path d="M130.9 161C131.6 161 132.2 160.4 132.2 159.7C132.2 159 131.6 158.4 130.9 158.4C130.2 158.4 129.6 159 129.6 159.7C129.6 160.4 130.2 161 130.9 161Z" fill="white"/>
<path d="M145.3 161C146 161 146.6 160.4 146.6 159.7C146.6 159 146 158.4 145.3 158.4C144.6 158.4 144 159 144 159.7C144 160.4 144.6 161 145.3 161Z" fill="white"/>
<path d="M159.7 161C160.418 161 161 160.418 161 159.7C161 158.982 160.418 158.4 159.7 158.4C158.982 158.4 158.4 158.982 158.4 159.7C158.4 160.418 158.982 161 159.7 161Z" fill="white"/>
<path d="M174.1 161C174.8 161 175.4 160.4 175.4 159.7C175.4 159 174.8 158.4 174.1 158.4C173.4 158.4 172.8 159 172.8 159.7C172.8 160.4 173.4 161 174.1 161Z" fill="white"/>
<path d="M188.5 161C189.2 161 189.8 160.4 189.8 159.7C189.8 159 189.2 158.4 188.5 158.4C187.8 158.4 187.2 159 187.2 159.7C187.2 160.4 187.8 161 188.5 161Z" fill="white"/>
<path d="M202.9 161C203.6 161 204.2 160.4 204.2 159.7C204.2 159 203.6 158.4 202.9 158.4C202.2 158.4 201.6 159 201.6 159.7C201.6 160.4 202.2 161 202.9 161Z" fill="white"/>
<path d="M217.3 161C218 161 218.6 160.4 218.6 159.7C218.6 159 218 158.4 217.3 158.4C216.6 158.4 216 159 216 159.7C216 160.4 216.6 161 217.3 161Z" fill="white"/>
<path d="M231.7 161C232.418 161 233 160.418 233 159.7C233 158.982 232.418 158.4 231.7 158.4C230.982 158.4 230.4 158.982 230.4 159.7C230.4 160.418 230.982 161 231.7 161Z" fill="white"/>
<path d="M246.1 161C246.8 161 247.4 160.4 247.4 159.7C247.4 159 246.8 158.4 246.1 158.4C245.4 158.4 244.8 159 244.8 159.7C244.8 160.4 245.4 161 246.1 161Z" fill="white"/>
<path d="M260.5 161C261.2 161 261.8 160.4 261.8 159.7C261.8 159 261.2 158.4 260.5 158.4C259.8 158.4 259.2 159 259.2 159.7C259.2 160.4 259.8 161 260.5 161Z" fill="white"/>
<path d="M274.9 161C275.6 161 276.2 160.4 276.2 159.7C276.2 159 275.6 158.4 274.9 158.4C274.2 158.4 273.6 159 273.6 159.7C273.6 160.4 274.2 161 274.9 161Z" fill="white"/>
<path d="M289.3 161C290 161 290.6 160.4 290.6 159.7C290.6 159 290 158.4 289.3 158.4C288.6 158.4 288 159 288 159.7C288 160.4 288.6 161 289.3 161Z" fill="white"/>
<path d="M303.7 161C304.418 161 305 160.418 305 159.7C305 158.982 304.418 158.4 303.7 158.4C302.982 158.4 302.4 158.982 302.4 159.7C302.4 160.418 302.982 161 303.7 161Z" fill="white"/>
<path d="M8.49995 175.4C9.19995 175.4 9.79995 174.8 9.79995 174.1C9.79995 173.4 9.19995 172.8 8.49995 172.8C7.79995 172.8 7.19995 173.4 7.19995 174.1C7.19995 174.8 7.79995 175.4 8.49995 175.4Z" fill="white"/>
<path d="M22.9001 175.4C23.6001 175.4 24.2001 174.8 24.2001 174.1C24.2001 173.4 23.6001 172.8 22.9001 172.8C22.2001 172.8 21.6001 173.4 21.6001 174.1C21.6001 174.8 22.2001 175.4 22.9001 175.4Z" fill="white"/>
<path d="M37.3 175.4C38 175.4 38.6 174.8 38.6 174.1C38.6 173.4 38 172.8 37.3 172.8C36.6 172.8 36 173.4 36 174.1C36 174.8 36.6 175.4 37.3 175.4Z" fill="white"/>
<path d="M51.6999 175.4C52.3999 175.4 52.9999 174.8 52.9999 174.1C52.9999 173.4 52.3999 172.8 51.6999 172.8C50.9999 172.8 50.3999 173.4 50.3999 174.1C50.3999 174.8 50.9999 175.4 51.6999 175.4Z" fill="white"/>
<path d="M66.1 175.4C66.8 175.4 67.4 174.8 67.4 174.1C67.4 173.4 66.8 172.8 66.1 172.8C65.4 172.8 64.8 173.4 64.8 174.1C64.8 174.8 65.4 175.4 66.1 175.4Z" fill="white"/>
<path d="M80.5 175.4C81.2 175.4 81.8 174.8 81.8 174.1C81.8 173.4 81.2 172.8 80.5 172.8C79.8 172.8 79.2 173.4 79.2 174.1C79.2 174.8 79.8 175.4 80.5 175.4Z" fill="white"/>
<path d="M94.9001 175.4C95.6001 175.4 96.2001 174.8 96.2001 174.1C96.2001 173.4 95.6001 172.8 94.9001 172.8C94.2001 172.8 93.6001 173.4 93.6001 174.1C93.6001 174.8 94.2001 175.4 94.9001 175.4Z" fill="white"/>
<path d="M109.3 175.4C110 175.4 110.6 174.8 110.6 174.1C110.6 173.4 110 172.8 109.3 172.8C108.6 172.8 108 173.4 108 174.1C108 174.8 108.6 175.4 109.3 175.4Z" fill="white"/>
<path d="M123.7 175.4C124.4 175.4 125 174.8 125 174.1C125 173.4 124.4 172.8 123.7 172.8C123 172.8 122.4 173.4 122.4 174.1C122.4 174.8 123 175.4 123.7 175.4Z" fill="white"/>
<path d="M138.1 175.4C138.8 175.4 139.4 174.8 139.4 174.1C139.4 173.4 138.8 172.8 138.1 172.8C137.4 172.8 136.8 173.4 136.8 174.1C136.8 174.8 137.4 175.4 138.1 175.4Z" fill="white"/>
<path d="M152.5 175.4C153.2 175.4 153.8 174.8 153.8 174.1C153.8 173.4 153.2 172.8 152.5 172.8C151.8 172.8 151.2 173.4 151.2 174.1C151.2 174.8 151.8 175.4 152.5 175.4Z" fill="white"/>
<path d="M166.9 175.4C167.6 175.4 168.2 174.8 168.2 174.1C168.2 173.4 167.6 172.8 166.9 172.8C166.2 172.8 165.6 173.4 165.6 174.1C165.6 174.8 166.2 175.4 166.9 175.4Z" fill="white"/>
<path d="M181.3 175.4C182 175.4 182.6 174.8 182.6 174.1C182.6 173.4 182 172.8 181.3 172.8C180.6 172.8 180 173.4 180 174.1C180 174.8 180.6 175.4 181.3 175.4Z" fill="white"/>
<path d="M195.7 175.4C196.4 175.4 197 174.8 197 174.1C197 173.4 196.4 172.8 195.7 172.8C195 172.8 194.4 173.4 194.4 174.1C194.4 174.8 195 175.4 195.7 175.4Z" fill="white"/>
<path d="M210.1 175.4C210.8 175.4 211.4 174.8 211.4 174.1C211.4 173.4 210.8 172.8 210.1 172.8C209.4 172.8 208.8 173.4 208.8 174.1C208.8 174.8 209.4 175.4 210.1 175.4Z" fill="white"/>
<path d="M224.5 175.4C225.2 175.4 225.8 174.8 225.8 174.1C225.8 173.4 225.2 172.8 224.5 172.8C223.8 172.8 223.2 173.4 223.2 174.1C223.2 174.8 223.8 175.4 224.5 175.4Z" fill="white"/>
<path d="M238.9 175.4C239.6 175.4 240.2 174.8 240.2 174.1C240.2 173.4 239.6 172.8 238.9 172.8C238.2 172.8 237.6 173.4 237.6 174.1C237.6 174.8 238.2 175.4 238.9 175.4Z" fill="white"/>
<path d="M253.3 175.4C254 175.4 254.6 174.8 254.6 174.1C254.6 173.4 254 172.8 253.3 172.8C252.6 172.8 252 173.4 252 174.1C252 174.8 252.6 175.4 253.3 175.4Z" fill="white"/>
<path d="M267.7 175.4C268.4 175.4 269 174.8 269 174.1C269 173.4 268.4 172.8 267.7 172.8C267 172.8 266.4 173.4 266.4 174.1C266.4 174.8 267 175.4 267.7 175.4Z" fill="white"/>
<path d="M282.1 175.4C282.8 175.4 283.4 174.8 283.4 174.1C283.4 173.4 282.8 172.8 282.1 172.8C281.4 172.8 280.8 173.4 280.8 174.1C280.8 174.8 281.4 175.4 282.1 175.4Z" fill="white"/>
<path d="M296.5 175.4C297.2 175.4 297.8 174.8 297.8 174.1C297.8 173.4 297.2 172.8 296.5 172.8C295.8 172.8 295.2 173.4 295.2 174.1C295.2 174.8 295.8 175.4 296.5 175.4Z" fill="white"/>
<path d="M310.9 175.4C311.6 175.4 312.2 174.8 312.2 174.1C312.2 173.4 311.6 172.8 310.9 172.8C310.2 172.8 309.6 173.4 309.6 174.1C309.6 174.8 310.2 175.4 310.9 175.4Z" fill="white"/>
<path d="M1.3 189.8C2 189.8 2.6 189.2 2.6 188.5C2.6 187.8 2 187.2 1.3 187.2C0.6 187.2 0 187.8 0 188.5C0 189.2 0.6 189.8 1.3 189.8Z" fill="white"/>
<path d="M15.6999 189.8C16.3999 189.8 16.9999 189.2 16.9999 188.5C16.9999 187.8 16.3999 187.2 15.6999 187.2C14.9999 187.2 14.3999 187.8 14.3999 188.5C14.3999 189.2 14.9999 189.8 15.6999 189.8Z" fill="white"/>
<path d="M30.1 189.8C30.8 189.8 31.4 189.2 31.4 188.5C31.4 187.8 30.8 187.2 30.1 187.2C29.4 187.2 28.8 187.8 28.8 188.5C28.8 189.2 29.4 189.8 30.1 189.8Z" fill="white"/>
<path d="M44.5 189.8C45.2 189.8 45.7999 189.2 45.7999 188.5C45.7999 187.8 45.2 187.2 44.5 187.2C43.8 187.2 43.2 187.8 43.2 188.5C43.2 189.2 43.8 189.8 44.5 189.8Z" fill="white"/>
<path d="M58.9001 189.8C59.6001 189.8 60.2001 189.2 60.2001 188.5C60.2001 187.8 59.6001 187.2 58.9001 187.2C58.2001 187.2 57.6001 187.8 57.6001 188.5C57.6001 189.2 58.2001 189.8 58.9001 189.8Z" fill="white"/>
<path d="M73.3 189.8C74 189.8 74.6 189.2 74.6 188.5C74.6 187.8 74 187.2 73.3 187.2C72.6 187.2 72 187.8 72 188.5C72 189.2 72.6 189.8 73.3 189.8Z" fill="white"/>
<path d="M87.6999 189.8C88.3999 189.8 88.9999 189.2 88.9999 188.5C88.9999 187.8 88.3999 187.2 87.6999 187.2C86.9999 187.2 86.3999 187.8 86.3999 188.5C86.3999 189.2 86.9999 189.8 87.6999 189.8Z" fill="white"/>
<path d="M102.1 189.8C102.8 189.8 103.4 189.2 103.4 188.5C103.4 187.8 102.8 187.2 102.1 187.2C101.4 187.2 100.8 187.8 100.8 188.5C100.8 189.2 101.4 189.8 102.1 189.8Z" fill="white"/>
<path d="M116.5 189.8C117.2 189.8 117.8 189.2 117.8 188.5C117.8 187.8 117.2 187.2 116.5 187.2C115.8 187.2 115.2 187.8 115.2 188.5C115.2 189.2 115.8 189.8 116.5 189.8Z" fill="white"/>
<path d="M130.9 189.8C131.6 189.8 132.2 189.2 132.2 188.5C132.2 187.8 131.6 187.2 130.9 187.2C130.2 187.2 129.6 187.8 129.6 188.5C129.6 189.2 130.2 189.8 130.9 189.8Z" fill="white"/>
<path d="M145.3 189.8C146 189.8 146.6 189.2 146.6 188.5C146.6 187.8 146 187.2 145.3 187.2C144.6 187.2 144 187.8 144 188.5C144 189.2 144.6 189.8 145.3 189.8Z" fill="white"/>
<path d="M159.7 189.8C160.4 189.8 161 189.2 161 188.5C161 187.8 160.4 187.2 159.7 187.2C159 187.2 158.4 187.8 158.4 188.5C158.4 189.2 159 189.8 159.7 189.8Z" fill="white"/>
<path d="M174.1 189.8C174.8 189.8 175.4 189.2 175.4 188.5C175.4 187.8 174.8 187.2 174.1 187.2C173.4 187.2 172.8 187.8 172.8 188.5C172.8 189.2 173.4 189.8 174.1 189.8Z" fill="white"/>
<path d="M188.5 189.8C189.2 189.8 189.8 189.2 189.8 188.5C189.8 187.8 189.2 187.2 188.5 187.2C187.8 187.2 187.2 187.8 187.2 188.5C187.2 189.2 187.8 189.8 188.5 189.8Z" fill="white"/>
<path d="M202.9 189.8C203.6 189.8 204.2 189.2 204.2 188.5C204.2 187.8 203.6 187.2 202.9 187.2C202.2 187.2 201.6 187.8 201.6 188.5C201.6 189.2 202.2 189.8 202.9 189.8Z" fill="white"/>
<path d="M217.3 189.8C218 189.8 218.6 189.2 218.6 188.5C218.6 187.8 218 187.2 217.3 187.2C216.6 187.2 216 187.8 216 188.5C216 189.2 216.6 189.8 217.3 189.8Z" fill="white"/>
<path d="M231.7 189.8C232.4 189.8 233 189.2 233 188.5C233 187.8 232.4 187.2 231.7 187.2C231 187.2 230.4 187.8 230.4 188.5C230.4 189.2 231 189.8 231.7 189.8Z" fill="white"/>
<path d="M246.1 189.8C246.8 189.8 247.4 189.2 247.4 188.5C247.4 187.8 246.8 187.2 246.1 187.2C245.4 187.2 244.8 187.8 244.8 188.5C244.8 189.2 245.4 189.8 246.1 189.8Z" fill="white"/>
<path d="M260.5 189.8C261.2 189.8 261.8 189.2 261.8 188.5C261.8 187.8 261.2 187.2 260.5 187.2C259.8 187.2 259.2 187.8 259.2 188.5C259.2 189.2 259.8 189.8 260.5 189.8Z" fill="white"/>
<path d="M274.9 189.8C275.6 189.8 276.2 189.2 276.2 188.5C276.2 187.8 275.6 187.2 274.9 187.2C274.2 187.2 273.6 187.8 273.6 188.5C273.6 189.2 274.2 189.8 274.9 189.8Z" fill="white"/>
<path d="M289.3 189.8C290 189.8 290.6 189.2 290.6 188.5C290.6 187.8 290 187.2 289.3 187.2C288.6 187.2 288 187.8 288 188.5C288 189.2 288.6 189.8 289.3 189.8Z" fill="white"/>
<path d="M303.7 189.8C304.4 189.8 305 189.2 305 188.5C305 187.8 304.4 187.2 303.7 187.2C303 187.2 302.4 187.8 302.4 188.5C302.4 189.2 303 189.8 303.7 189.8Z" fill="white"/>
<path d="M8.49995 204.2C9.19995 204.2 9.79995 203.6 9.79995 202.9C9.79995 202.2 9.19995 201.6 8.49995 201.6C7.79995 201.6 7.19995 202.2 7.19995 202.9C7.19995 203.6 7.79995 204.2 8.49995 204.2Z" fill="white"/>
<path d="M22.9001 204.2C23.6001 204.2 24.2001 203.6 24.2001 202.9C24.2001 202.2 23.6001 201.6 22.9001 201.6C22.2001 201.6 21.6001 202.2 21.6001 202.9C21.6001 203.6 22.2001 204.2 22.9001 204.2Z" fill="white"/>
<path d="M37.3 204.2C38 204.2 38.6 203.6 38.6 202.9C38.6 202.2 38 201.6 37.3 201.6C36.6 201.6 36 202.2 36 202.9C36 203.6 36.6 204.2 37.3 204.2Z" fill="white"/>
<path d="M51.6999 204.2C52.3999 204.2 52.9999 203.6 52.9999 202.9C52.9999 202.2 52.3999 201.6 51.6999 201.6C50.9999 201.6 50.3999 202.2 50.3999 202.9C50.3999 203.6 50.9999 204.2 51.6999 204.2Z" fill="white"/>
<path d="M66.1 204.2C66.8 204.2 67.4 203.6 67.4 202.9C67.4 202.2 66.8 201.6 66.1 201.6C65.4 201.6 64.8 202.2 64.8 202.9C64.8 203.6 65.4 204.2 66.1 204.2Z" fill="white"/>
<path d="M80.5 204.2C81.2 204.2 81.8 203.6 81.8 202.9C81.8 202.2 81.2 201.6 80.5 201.6C79.8 201.6 79.2 202.2 79.2 202.9C79.2 203.6 79.8 204.2 80.5 204.2Z" fill="white"/>
<path d="M94.9001 204.2C95.6001 204.2 96.2001 203.6 96.2001 202.9C96.2001 202.2 95.6001 201.6 94.9001 201.6C94.2001 201.6 93.6001 202.2 93.6001 202.9C93.6001 203.6 94.2001 204.2 94.9001 204.2Z" fill="white"/>
<path d="M109.3 204.2C110 204.2 110.6 203.6 110.6 202.9C110.6 202.2 110 201.6 109.3 201.6C108.6 201.6 108 202.2 108 202.9C108 203.6 108.6 204.2 109.3 204.2Z" fill="white"/>
<path d="M123.7 204.2C124.4 204.2 125 203.6 125 202.9C125 202.2 124.4 201.6 123.7 201.6C123 201.6 122.4 202.2 122.4 202.9C122.4 203.6 123 204.2 123.7 204.2Z" fill="white"/>
<path d="M138.1 204.2C138.8 204.2 139.4 203.6 139.4 202.9C139.4 202.2 138.8 201.6 138.1 201.6C137.4 201.6 136.8 202.2 136.8 202.9C136.8 203.6 137.4 204.2 138.1 204.2Z" fill="white"/>
<path d="M152.5 204.2C153.2 204.2 153.8 203.6 153.8 202.9C153.8 202.2 153.2 201.6 152.5 201.6C151.8 201.6 151.2 202.2 151.2 202.9C151.2 203.6 151.8 204.2 152.5 204.2Z" fill="white"/>
<path d="M166.9 204.2C167.6 204.2 168.2 203.6 168.2 202.9C168.2 202.2 167.6 201.6 166.9 201.6C166.2 201.6 165.6 202.2 165.6 202.9C165.6 203.6 166.2 204.2 166.9 204.2Z" fill="white"/>
<path d="M181.3 204.2C182 204.2 182.6 203.6 182.6 202.9C182.6 202.2 182 201.6 181.3 201.6C180.6 201.6 180 202.2 180 202.9C180 203.6 180.6 204.2 181.3 204.2Z" fill="white"/>
<path d="M195.7 204.2C196.4 204.2 197 203.6 197 202.9C197 202.2 196.4 201.6 195.7 201.6C195 201.6 194.4 202.2 194.4 202.9C194.4 203.6 195 204.2 195.7 204.2Z" fill="white"/>
<path d="M210.1 204.2C210.8 204.2 211.4 203.6 211.4 202.9C211.4 202.2 210.8 201.6 210.1 201.6C209.4 201.6 208.8 202.2 208.8 202.9C208.8 203.6 209.4 204.2 210.1 204.2Z" fill="white"/>
<path d="M224.5 204.2C225.2 204.2 225.8 203.6 225.8 202.9C225.8 202.2 225.2 201.6 224.5 201.6C223.8 201.6 223.2 202.2 223.2 202.9C223.2 203.6 223.8 204.2 224.5 204.2Z" fill="white"/>
<path d="M238.9 204.2C239.6 204.2 240.2 203.6 240.2 202.9C240.2 202.2 239.6 201.6 238.9 201.6C238.2 201.6 237.6 202.2 237.6 202.9C237.6 203.6 238.2 204.2 238.9 204.2Z" fill="white"/>
<path d="M253.3 204.2C254 204.2 254.6 203.6 254.6 202.9C254.6 202.2 254 201.6 253.3 201.6C252.6 201.6 252 202.2 252 202.9C252 203.6 252.6 204.2 253.3 204.2Z" fill="white"/>
<path d="M267.7 204.2C268.4 204.2 269 203.6 269 202.9C269 202.2 268.4 201.6 267.7 201.6C267 201.6 266.4 202.2 266.4 202.9C266.4 203.6 267 204.2 267.7 204.2Z" fill="white"/>
<path d="M282.1 204.2C282.8 204.2 283.4 203.6 283.4 202.9C283.4 202.2 282.8 201.6 282.1 201.6C281.4 201.6 280.8 202.2 280.8 202.9C280.8 203.6 281.4 204.2 282.1 204.2Z" fill="white"/>
<path d="M296.5 204.2C297.2 204.2 297.8 203.6 297.8 202.9C297.8 202.2 297.2 201.6 296.5 201.6C295.8 201.6 295.2 202.2 295.2 202.9C295.2 203.6 295.8 204.2 296.5 204.2Z" fill="white"/>
<path d="M310.9 204.2C311.6 204.2 312.2 203.6 312.2 202.9C312.2 202.2 311.6 201.6 310.9 201.6C310.2 201.6 309.6 202.2 309.6 202.9C309.6 203.6 310.2 204.2 310.9 204.2Z" fill="white"/>
<path d="M1.3 218.6C2 218.6 2.6 218 2.6 217.3C2.6 216.6 2 216 1.3 216C0.6 216 0 216.6 0 217.3C0 218 0.6 218.6 1.3 218.6Z" fill="white"/>
<path d="M15.6999 218.6C16.4179 218.6 16.9999 218.018 16.9999 217.3C16.9999 216.582 16.4179 216 15.6999 216C14.9819 216 14.3999 216.582 14.3999 217.3C14.3999 218.018 14.9819 218.6 15.6999 218.6Z" fill="white"/>
<path d="M30.1 218.6C30.8 218.6 31.4 218 31.4 217.3C31.4 216.6 30.8 216 30.1 216C29.4 216 28.8 216.6 28.8 217.3C28.8 218 29.4 218.6 30.1 218.6Z" fill="white"/>
<path d="M44.5 218.6C45.2 218.6 45.7999 218 45.7999 217.3C45.7999 216.6 45.2 216 44.5 216C43.8 216 43.2 216.6 43.2 217.3C43.2 218 43.8 218.6 44.5 218.6Z" fill="white"/>
<path d="M58.9001 218.6C59.6001 218.6 60.2001 218 60.2001 217.3C60.2001 216.6 59.6001 216 58.9001 216C58.2001 216 57.6001 216.6 57.6001 217.3C57.6001 218 58.2001 218.6 58.9001 218.6Z" fill="white"/>
<path d="M73.3 218.6C74 218.6 74.6 218 74.6 217.3C74.6 216.6 74 216 73.3 216C72.6 216 72 216.6 72 217.3C72 218 72.6 218.6 73.3 218.6Z" fill="white"/>
<path d="M87.6999 218.6C88.4179 218.6 88.9999 218.018 88.9999 217.3C88.9999 216.582 88.4179 216 87.6999 216C86.9819 216 86.3999 216.582 86.3999 217.3C86.3999 218.018 86.9819 218.6 87.6999 218.6Z" fill="white"/>
<path d="M102.1 218.6C102.8 218.6 103.4 218 103.4 217.3C103.4 216.6 102.8 216 102.1 216C101.4 216 100.8 216.6 100.8 217.3C100.8 218 101.4 218.6 102.1 218.6Z" fill="white"/>
<path d="M116.5 218.6C117.2 218.6 117.8 218 117.8 217.3C117.8 216.6 117.2 216 116.5 216C115.8 216 115.2 216.6 115.2 217.3C115.2 218 115.8 218.6 116.5 218.6Z" fill="white"/>
<path d="M130.9 218.6C131.6 218.6 132.2 218 132.2 217.3C132.2 216.6 131.6 216 130.9 216C130.2 216 129.6 216.6 129.6 217.3C129.6 218 130.2 218.6 130.9 218.6Z" fill="white"/>
<path d="M145.3 218.6C146 218.6 146.6 218 146.6 217.3C146.6 216.6 146 216 145.3 216C144.6 216 144 216.6 144 217.3C144 218 144.6 218.6 145.3 218.6Z" fill="white"/>
<path d="M159.7 218.6C160.418 218.6 161 218.018 161 217.3C161 216.582 160.418 216 159.7 216C158.982 216 158.4 216.582 158.4 217.3C158.4 218.018 158.982 218.6 159.7 218.6Z" fill="white"/>
<path d="M174.1 218.6C174.8 218.6 175.4 218 175.4 217.3C175.4 216.6 174.8 216 174.1 216C173.4 216 172.8 216.6 172.8 217.3C172.8 218 173.4 218.6 174.1 218.6Z" fill="white"/>
<path d="M188.5 218.6C189.2 218.6 189.8 218 189.8 217.3C189.8 216.6 189.2 216 188.5 216C187.8 216 187.2 216.6 187.2 217.3C187.2 218 187.8 218.6 188.5 218.6Z" fill="white"/>
<path d="M202.9 218.6C203.6 218.6 204.2 218 204.2 217.3C204.2 216.6 203.6 216 202.9 216C202.2 216 201.6 216.6 201.6 217.3C201.6 218 202.2 218.6 202.9 218.6Z" fill="white"/>
<path d="M217.3 218.6C218 218.6 218.6 218 218.6 217.3C218.6 216.6 218 216 217.3 216C216.6 216 216 216.6 216 217.3C216 218 216.6 218.6 217.3 218.6Z" fill="white"/>
<path d="M231.7 218.6C232.418 218.6 233 218.018 233 217.3C233 216.582 232.418 216 231.7 216C230.982 216 230.4 216.582 230.4 217.3C230.4 218.018 230.982 218.6 231.7 218.6Z" fill="white"/>
<path d="M246.1 218.6C246.8 218.6 247.4 218 247.4 217.3C247.4 216.6 246.8 216 246.1 216C245.4 216 244.8 216.6 244.8 217.3C244.8 218 245.4 218.6 246.1 218.6Z" fill="white"/>
<path d="M260.5 218.6C261.2 218.6 261.8 218 261.8 217.3C261.8 216.6 261.2 216 260.5 216C259.8 216 259.2 216.6 259.2 217.3C259.2 218 259.8 218.6 260.5 218.6Z" fill="white"/>
<path d="M274.9 218.6C275.6 218.6 276.2 218 276.2 217.3C276.2 216.6 275.6 216 274.9 216C274.2 216 273.6 216.6 273.6 217.3C273.6 218 274.2 218.6 274.9 218.6Z" fill="white"/>
<path d="M289.3 218.6C290 218.6 290.6 218 290.6 217.3C290.6 216.6 290 216 289.3 216C288.6 216 288 216.6 288 217.3C288 218 288.6 218.6 289.3 218.6Z" fill="white"/>
<path d="M303.7 218.6C304.418 218.6 305 218.018 305 217.3C305 216.582 304.418 216 303.7 216C302.982 216 302.4 216.582 302.4 217.3C302.4 218.018 302.982 218.6 303.7 218.6Z" fill="white"/>
<path d="M8.49995 233C9.19995 233 9.79995 232.4 9.79995 231.7C9.79995 231 9.19995 230.4 8.49995 230.4C7.79995 230.4 7.19995 231 7.19995 231.7C7.19995 232.4 7.79995 233 8.49995 233Z" fill="white"/>
<path d="M22.9001 233C23.6001 233 24.2001 232.4 24.2001 231.7C24.2001 231 23.6001 230.4 22.9001 230.4C22.2001 230.4 21.6001 231 21.6001 231.7C21.6001 232.4 22.2001 233 22.9001 233Z" fill="white"/>
<path d="M37.3 233C38 233 38.6 232.4 38.6 231.7C38.6 231 38 230.4 37.3 230.4C36.6 230.4 36 231 36 231.7C36 232.4 36.6 233 37.3 233Z" fill="white"/>
<path d="M51.6999 233C52.4179 233 52.9999 232.418 52.9999 231.7C52.9999 230.982 52.4179 230.4 51.6999 230.4C50.9819 230.4 50.3999 230.982 50.3999 231.7C50.3999 232.418 50.9819 233 51.6999 233Z" fill="white"/>
<path d="M66.1 233C66.8 233 67.4 232.4 67.4 231.7C67.4 231 66.8 230.4 66.1 230.4C65.4 230.4 64.8 231 64.8 231.7C64.8 232.4 65.4 233 66.1 233Z" fill="white"/>
<path d="M80.5 233C81.2 233 81.8 232.4 81.8 231.7C81.8 231 81.2 230.4 80.5 230.4C79.8 230.4 79.2 231 79.2 231.7C79.2 232.4 79.8 233 80.5 233Z" fill="white"/>
<path d="M94.9001 233C95.6001 233 96.2001 232.4 96.2001 231.7C96.2001 231 95.6001 230.4 94.9001 230.4C94.2001 230.4 93.6001 231 93.6001 231.7C93.6001 232.4 94.2001 233 94.9001 233Z" fill="white"/>
<path d="M109.3 233C110 233 110.6 232.4 110.6 231.7C110.6 231 110 230.4 109.3 230.4C108.6 230.4 108 231 108 231.7C108 232.4 108.6 233 109.3 233Z" fill="white"/>
<path d="M123.7 233C124.418 233 125 232.418 125 231.7C125 230.982 124.418 230.4 123.7 230.4C122.982 230.4 122.4 230.982 122.4 231.7C122.4 232.418 122.982 233 123.7 233Z" fill="white"/>
<path d="M138.1 233C138.8 233 139.4 232.4 139.4 231.7C139.4 231 138.8 230.4 138.1 230.4C137.4 230.4 136.8 231 136.8 231.7C136.8 232.4 137.4 233 138.1 233Z" fill="white"/>
<path d="M152.5 233C153.2 233 153.8 232.4 153.8 231.7C153.8 231 153.2 230.4 152.5 230.4C151.8 230.4 151.2 231 151.2 231.7C151.2 232.4 151.8 233 152.5 233Z" fill="white"/>
<path d="M166.9 233C167.6 233 168.2 232.4 168.2 231.7C168.2 231 167.6 230.4 166.9 230.4C166.2 230.4 165.6 231 165.6 231.7C165.6 232.4 166.2 233 166.9 233Z" fill="white"/>
<path d="M181.3 233C182 233 182.6 232.4 182.6 231.7C182.6 231 182 230.4 181.3 230.4C180.6 230.4 180 231 180 231.7C180 232.4 180.6 233 181.3 233Z" fill="white"/>
<path d="M195.7 233C196.418 233 197 232.418 197 231.7C197 230.982 196.418 230.4 195.7 230.4C194.982 230.4 194.4 230.982 194.4 231.7C194.4 232.418 194.982 233 195.7 233Z" fill="white"/>
<path d="M210.1 233C210.8 233 211.4 232.4 211.4 231.7C211.4 231 210.8 230.4 210.1 230.4C209.4 230.4 208.8 231 208.8 231.7C208.8 232.4 209.4 233 210.1 233Z" fill="white"/>
<path d="M224.5 233C225.2 233 225.8 232.4 225.8 231.7C225.8 231 225.2 230.4 224.5 230.4C223.8 230.4 223.2 231 223.2 231.7C223.2 232.4 223.8 233 224.5 233Z" fill="white"/>
<path d="M238.9 233C239.6 233 240.2 232.4 240.2 231.7C240.2 231 239.6 230.4 238.9 230.4C238.2 230.4 237.6 231 237.6 231.7C237.6 232.4 238.2 233 238.9 233Z" fill="white"/>
<path d="M253.3 233C254 233 254.6 232.4 254.6 231.7C254.6 231 254 230.4 253.3 230.4C252.6 230.4 252 231 252 231.7C252 232.4 252.6 233 253.3 233Z" fill="white"/>
<path d="M267.7 233C268.418 233 269 232.418 269 231.7C269 230.982 268.418 230.4 267.7 230.4C266.982 230.4 266.4 230.982 266.4 231.7C266.4 232.418 266.982 233 267.7 233Z" fill="white"/>
<path d="M282.1 233C282.8 233 283.4 232.4 283.4 231.7C283.4 231 282.8 230.4 282.1 230.4C281.4 230.4 280.8 231 280.8 231.7C280.8 232.4 281.4 233 282.1 233Z" fill="white"/>
<path d="M296.5 233C297.2 233 297.8 232.4 297.8 231.7C297.8 231 297.2 230.4 296.5 230.4C295.8 230.4 295.2 231 295.2 231.7C295.2 232.4 295.8 233 296.5 233Z" fill="white"/>
<path d="M310.9 233C311.6 233 312.2 232.4 312.2 231.7C312.2 231 311.6 230.4 310.9 230.4C310.2 230.4 309.6 231 309.6 231.7C309.6 232.4 310.2 233 310.9 233Z" fill="white"/>
<path d="M1.3 247.4C2 247.4 2.6 246.8 2.6 246.1C2.6 245.4 2 244.8 1.3 244.8C0.6 244.8 0 245.4 0 246.1C0 246.8 0.6 247.4 1.3 247.4Z" fill="white"/>
<path d="M15.6999 247.4C16.3999 247.4 16.9999 246.8 16.9999 246.1C16.9999 245.4 16.3999 244.8 15.6999 244.8C14.9999 244.8 14.3999 245.4 14.3999 246.1C14.3999 246.8 14.9999 247.4 15.6999 247.4Z" fill="white"/>
<path d="M30.1 247.4C30.8 247.4 31.4 246.8 31.4 246.1C31.4 245.4 30.8 244.8 30.1 244.8C29.4 244.8 28.8 245.4 28.8 246.1C28.8 246.8 29.4 247.4 30.1 247.4Z" fill="white"/>
<path d="M44.5 247.4C45.2 247.4 45.7999 246.8 45.7999 246.1C45.7999 245.4 45.2 244.8 44.5 244.8C43.8 244.8 43.2 245.4 43.2 246.1C43.2 246.8 43.8 247.4 44.5 247.4Z" fill="white"/>
<path d="M58.9001 247.4C59.6001 247.4 60.2001 246.8 60.2001 246.1C60.2001 245.4 59.6001 244.8 58.9001 244.8C58.2001 244.8 57.6001 245.4 57.6001 246.1C57.6001 246.8 58.2001 247.4 58.9001 247.4Z" fill="white"/>
<path d="M73.3 247.4C74 247.4 74.6 246.8 74.6 246.1C74.6 245.4 74 244.8 73.3 244.8C72.6 244.8 72 245.4 72 246.1C72 246.8 72.6 247.4 73.3 247.4Z" fill="white"/>
<path d="M87.6999 247.4C88.3999 247.4 88.9999 246.8 88.9999 246.1C88.9999 245.4 88.3999 244.8 87.6999 244.8C86.9999 244.8 86.3999 245.4 86.3999 246.1C86.3999 246.8 86.9999 247.4 87.6999 247.4Z" fill="white"/>
<path d="M102.1 247.4C102.8 247.4 103.4 246.8 103.4 246.1C103.4 245.4 102.8 244.8 102.1 244.8C101.4 244.8 100.8 245.4 100.8 246.1C100.8 246.8 101.4 247.4 102.1 247.4Z" fill="white"/>
<path d="M116.5 247.4C117.2 247.4 117.8 246.8 117.8 246.1C117.8 245.4 117.2 244.8 116.5 244.8C115.8 244.8 115.2 245.4 115.2 246.1C115.2 246.8 115.8 247.4 116.5 247.4Z" fill="white"/>
<path d="M130.9 247.4C131.6 247.4 132.2 246.8 132.2 246.1C132.2 245.4 131.6 244.8 130.9 244.8C130.2 244.8 129.6 245.4 129.6 246.1C129.6 246.8 130.2 247.4 130.9 247.4Z" fill="white"/>
<path d="M145.3 247.4C146 247.4 146.6 246.8 146.6 246.1C146.6 245.4 146 244.8 145.3 244.8C144.6 244.8 144 245.4 144 246.1C144 246.8 144.6 247.4 145.3 247.4Z" fill="white"/>
<path d="M159.7 247.4C160.4 247.4 161 246.8 161 246.1C161 245.4 160.4 244.8 159.7 244.8C159 244.8 158.4 245.4 158.4 246.1C158.4 246.8 159 247.4 159.7 247.4Z" fill="white"/>
<path d="M174.1 247.4C174.8 247.4 175.4 246.8 175.4 246.1C175.4 245.4 174.8 244.8 174.1 244.8C173.4 244.8 172.8 245.4 172.8 246.1C172.8 246.8 173.4 247.4 174.1 247.4Z" fill="white"/>
<path d="M188.5 247.4C189.2 247.4 189.8 246.8 189.8 246.1C189.8 245.4 189.2 244.8 188.5 244.8C187.8 244.8 187.2 245.4 187.2 246.1C187.2 246.8 187.8 247.4 188.5 247.4Z" fill="white"/>
<path d="M202.9 247.4C203.6 247.4 204.2 246.8 204.2 246.1C204.2 245.4 203.6 244.8 202.9 244.8C202.2 244.8 201.6 245.4 201.6 246.1C201.6 246.8 202.2 247.4 202.9 247.4Z" fill="white"/>
<path d="M217.3 247.4C218 247.4 218.6 246.8 218.6 246.1C218.6 245.4 218 244.8 217.3 244.8C216.6 244.8 216 245.4 216 246.1C216 246.8 216.6 247.4 217.3 247.4Z" fill="white"/>
<path d="M231.7 247.4C232.4 247.4 233 246.8 233 246.1C233 245.4 232.4 244.8 231.7 244.8C231 244.8 230.4 245.4 230.4 246.1C230.4 246.8 231 247.4 231.7 247.4Z" fill="white"/>
<path d="M246.1 247.4C246.8 247.4 247.4 246.8 247.4 246.1C247.4 245.4 246.8 244.8 246.1 244.8C245.4 244.8 244.8 245.4 244.8 246.1C244.8 246.8 245.4 247.4 246.1 247.4Z" fill="white"/>
<path d="M260.5 247.4C261.2 247.4 261.8 246.8 261.8 246.1C261.8 245.4 261.2 244.8 260.5 244.8C259.8 244.8 259.2 245.4 259.2 246.1C259.2 246.8 259.8 247.4 260.5 247.4Z" fill="white"/>
<path d="M274.9 247.4C275.6 247.4 276.2 246.8 276.2 246.1C276.2 245.4 275.6 244.8 274.9 244.8C274.2 244.8 273.6 245.4 273.6 246.1C273.6 246.8 274.2 247.4 274.9 247.4Z" fill="white"/>
<path d="M289.3 247.4C290 247.4 290.6 246.8 290.6 246.1C290.6 245.4 290 244.8 289.3 244.8C288.6 244.8 288 245.4 288 246.1C288 246.8 288.6 247.4 289.3 247.4Z" fill="white"/>
<path d="M303.7 247.4C304.4 247.4 305 246.8 305 246.1C305 245.4 304.4 244.8 303.7 244.8C303 244.8 302.4 245.4 302.4 246.1C302.4 246.8 303 247.4 303.7 247.4Z" fill="white"/>
<path d="M8.49995 261.8C9.19995 261.8 9.79995 261.2 9.79995 260.5C9.79995 259.8 9.19995 259.2 8.49995 259.2C7.79995 259.2 7.19995 259.8 7.19995 260.5C7.19995 261.2 7.79995 261.8 8.49995 261.8Z" fill="white"/>
<path d="M22.9001 261.8C23.6001 261.8 24.2001 261.2 24.2001 260.5C24.2001 259.8 23.6001 259.2 22.9001 259.2C22.2001 259.2 21.6001 259.8 21.6001 260.5C21.6001 261.2 22.2001 261.8 22.9001 261.8Z" fill="white"/>
<path d="M37.3 261.8C38 261.8 38.6 261.2 38.6 260.5C38.6 259.8 38 259.2 37.3 259.2C36.6 259.2 36 259.8 36 260.5C36 261.2 36.6 261.8 37.3 261.8Z" fill="white"/>
<path d="M51.6999 261.8C52.3999 261.8 52.9999 261.2 52.9999 260.5C52.9999 259.8 52.3999 259.2 51.6999 259.2C50.9999 259.2 50.3999 259.8 50.3999 260.5C50.3999 261.2 50.9999 261.8 51.6999 261.8Z" fill="white"/>
<path d="M66.1 261.8C66.8 261.8 67.4 261.2 67.4 260.5C67.4 259.8 66.8 259.2 66.1 259.2C65.4 259.2 64.8 259.8 64.8 260.5C64.8 261.2 65.4 261.8 66.1 261.8Z" fill="white"/>
<path d="M80.5 261.8C81.2 261.8 81.8 261.2 81.8 260.5C81.8 259.8 81.2 259.2 80.5 259.2C79.8 259.2 79.2 259.8 79.2 260.5C79.2 261.2 79.8 261.8 80.5 261.8Z" fill="white"/>
<path d="M94.9001 261.8C95.6001 261.8 96.2001 261.2 96.2001 260.5C96.2001 259.8 95.6001 259.2 94.9001 259.2C94.2001 259.2 93.6001 259.8 93.6001 260.5C93.6001 261.2 94.2001 261.8 94.9001 261.8Z" fill="white"/>
<path d="M109.3 261.8C110 261.8 110.6 261.2 110.6 260.5C110.6 259.8 110 259.2 109.3 259.2C108.6 259.2 108 259.8 108 260.5C108 261.2 108.6 261.8 109.3 261.8Z" fill="white"/>
<path d="M123.7 261.8C124.4 261.8 125 261.2 125 260.5C125 259.8 124.4 259.2 123.7 259.2C123 259.2 122.4 259.8 122.4 260.5C122.4 261.2 123 261.8 123.7 261.8Z" fill="white"/>
<path d="M138.1 261.8C138.8 261.8 139.4 261.2 139.4 260.5C139.4 259.8 138.8 259.2 138.1 259.2C137.4 259.2 136.8 259.8 136.8 260.5C136.8 261.2 137.4 261.8 138.1 261.8Z" fill="white"/>
<path d="M152.5 261.8C153.2 261.8 153.8 261.2 153.8 260.5C153.8 259.8 153.2 259.2 152.5 259.2C151.8 259.2 151.2 259.8 151.2 260.5C151.2 261.2 151.8 261.8 152.5 261.8Z" fill="white"/>
<path d="M166.9 261.8C167.6 261.8 168.2 261.2 168.2 260.5C168.2 259.8 167.6 259.2 166.9 259.2C166.2 259.2 165.6 259.8 165.6 260.5C165.6 261.2 166.2 261.8 166.9 261.8Z" fill="white"/>
<path d="M181.3 261.8C182 261.8 182.6 261.2 182.6 260.5C182.6 259.8 182 259.2 181.3 259.2C180.6 259.2 180 259.8 180 260.5C180 261.2 180.6 261.8 181.3 261.8Z" fill="white"/>
<path d="M195.7 261.8C196.4 261.8 197 261.2 197 260.5C197 259.8 196.4 259.2 195.7 259.2C195 259.2 194.4 259.8 194.4 260.5C194.4 261.2 195 261.8 195.7 261.8Z" fill="white"/>
<path d="M210.1 261.8C210.8 261.8 211.4 261.2 211.4 260.5C211.4 259.8 210.8 259.2 210.1 259.2C209.4 259.2 208.8 259.8 208.8 260.5C208.8 261.2 209.4 261.8 210.1 261.8Z" fill="white"/>
<path d="M224.5 261.8C225.2 261.8 225.8 261.2 225.8 260.5C225.8 259.8 225.2 259.2 224.5 259.2C223.8 259.2 223.2 259.8 223.2 260.5C223.2 261.2 223.8 261.8 224.5 261.8Z" fill="white"/>
<path d="M238.9 261.8C239.6 261.8 240.2 261.2 240.2 260.5C240.2 259.8 239.6 259.2 238.9 259.2C238.2 259.2 237.6 259.8 237.6 260.5C237.6 261.2 238.2 261.8 238.9 261.8Z" fill="white"/>
<path d="M253.3 261.8C254 261.8 254.6 261.2 254.6 260.5C254.6 259.8 254 259.2 253.3 259.2C252.6 259.2 252 259.8 252 260.5C252 261.2 252.6 261.8 253.3 261.8Z" fill="white"/>
<path d="M267.7 261.8C268.4 261.8 269 261.2 269 260.5C269 259.8 268.4 259.2 267.7 259.2C267 259.2 266.4 259.8 266.4 260.5C266.4 261.2 267 261.8 267.7 261.8Z" fill="white"/>
<path d="M282.1 261.8C282.8 261.8 283.4 261.2 283.4 260.5C283.4 259.8 282.8 259.2 282.1 259.2C281.4 259.2 280.8 259.8 280.8 260.5C280.8 261.2 281.4 261.8 282.1 261.8Z" fill="white"/>
<path d="M296.5 261.8C297.2 261.8 297.8 261.2 297.8 260.5C297.8 259.8 297.2 259.2 296.5 259.2C295.8 259.2 295.2 259.8 295.2 260.5C295.2 261.2 295.8 261.8 296.5 261.8Z" fill="white"/>
<path d="M310.9 261.8C311.6 261.8 312.2 261.2 312.2 260.5C312.2 259.8 311.6 259.2 310.9 259.2C310.2 259.2 309.6 259.8 309.6 260.5C309.6 261.2 310.2 261.8 310.9 261.8Z" fill="white"/>
<path d="M1.3 276.2C2 276.2 2.6 275.6 2.6 274.9C2.6 274.2 2 273.6 1.3 273.6C0.6 273.6 0 274.2 0 274.9C0 275.6 0.6 276.2 1.3 276.2Z" fill="white"/>
<path d="M15.6999 276.2C16.3999 276.2 16.9999 275.6 16.9999 274.9C16.9999 274.2 16.3999 273.6 15.6999 273.6C14.9999 273.6 14.3999 274.2 14.3999 274.9C14.3999 275.6 14.9999 276.2 15.6999 276.2Z" fill="white"/>
<path d="M30.1 276.2C30.8 276.2 31.4 275.6 31.4 274.9C31.4 274.2 30.8 273.6 30.1 273.6C29.4 273.6 28.8 274.2 28.8 274.9C28.8 275.6 29.4 276.2 30.1 276.2Z" fill="white"/>
<path d="M44.5 276.2C45.2 276.2 45.7999 275.6 45.7999 274.9C45.7999 274.2 45.2 273.6 44.5 273.6C43.8 273.6 43.2 274.2 43.2 274.9C43.2 275.6 43.8 276.2 44.5 276.2Z" fill="white"/>
<path d="M58.9001 276.2C59.6001 276.2 60.2001 275.6 60.2001 274.9C60.2001 274.2 59.6001 273.6 58.9001 273.6C58.2001 273.6 57.6001 274.2 57.6001 274.9C57.6001 275.6 58.2001 276.2 58.9001 276.2Z" fill="white"/>
<path d="M73.3 276.2C74 276.2 74.6 275.6 74.6 274.9C74.6 274.2 74 273.6 73.3 273.6C72.6 273.6 72 274.2 72 274.9C72 275.6 72.6 276.2 73.3 276.2Z" fill="white"/>
<path d="M87.6999 276.2C88.3999 276.2 88.9999 275.6 88.9999 274.9C88.9999 274.2 88.3999 273.6 87.6999 273.6C86.9999 273.6 86.3999 274.2 86.3999 274.9C86.3999 275.6 86.9999 276.2 87.6999 276.2Z" fill="white"/>
<path d="M102.1 276.2C102.8 276.2 103.4 275.6 103.4 274.9C103.4 274.2 102.8 273.6 102.1 273.6C101.4 273.6 100.8 274.2 100.8 274.9C100.8 275.6 101.4 276.2 102.1 276.2Z" fill="white"/>
<path d="M116.5 276.2C117.2 276.2 117.8 275.6 117.8 274.9C117.8 274.2 117.2 273.6 116.5 273.6C115.8 273.6 115.2 274.2 115.2 274.9C115.2 275.6 115.8 276.2 116.5 276.2Z" fill="white"/>
<path d="M130.9 276.2C131.6 276.2 132.2 275.6 132.2 274.9C132.2 274.2 131.6 273.6 130.9 273.6C130.2 273.6 129.6 274.2 129.6 274.9C129.6 275.6 130.2 276.2 130.9 276.2Z" fill="white"/>
<path d="M145.3 276.2C146 276.2 146.6 275.6 146.6 274.9C146.6 274.2 146 273.6 145.3 273.6C144.6 273.6 144 274.2 144 274.9C144 275.6 144.6 276.2 145.3 276.2Z" fill="white"/>
<path d="M159.7 276.2C160.4 276.2 161 275.6 161 274.9C161 274.2 160.4 273.6 159.7 273.6C159 273.6 158.4 274.2 158.4 274.9C158.4 275.6 159 276.2 159.7 276.2Z" fill="white"/>
<path d="M174.1 276.2C174.8 276.2 175.4 275.6 175.4 274.9C175.4 274.2 174.8 273.6 174.1 273.6C173.4 273.6 172.8 274.2 172.8 274.9C172.8 275.6 173.4 276.2 174.1 276.2Z" fill="white"/>
<path d="M188.5 276.2C189.2 276.2 189.8 275.6 189.8 274.9C189.8 274.2 189.2 273.6 188.5 273.6C187.8 273.6 187.2 274.2 187.2 274.9C187.2 275.6 187.8 276.2 188.5 276.2Z" fill="white"/>
<path d="M202.9 276.2C203.6 276.2 204.2 275.6 204.2 274.9C204.2 274.2 203.6 273.6 202.9 273.6C202.2 273.6 201.6 274.2 201.6 274.9C201.6 275.6 202.2 276.2 202.9 276.2Z" fill="white"/>
<path d="M217.3 276.2C218 276.2 218.6 275.6 218.6 274.9C218.6 274.2 218 273.6 217.3 273.6C216.6 273.6 216 274.2 216 274.9C216 275.6 216.6 276.2 217.3 276.2Z" fill="white"/>
<path d="M231.7 276.2C232.4 276.2 233 275.6 233 274.9C233 274.2 232.4 273.6 231.7 273.6C231 273.6 230.4 274.2 230.4 274.9C230.4 275.6 231 276.2 231.7 276.2Z" fill="white"/>
<path d="M246.1 276.2C246.8 276.2 247.4 275.6 247.4 274.9C247.4 274.2 246.8 273.6 246.1 273.6C245.4 273.6 244.8 274.2 244.8 274.9C244.8 275.6 245.4 276.2 246.1 276.2Z" fill="white"/>
<path d="M260.5 276.2C261.2 276.2 261.8 275.6 261.8 274.9C261.8 274.2 261.2 273.6 260.5 273.6C259.8 273.6 259.2 274.2 259.2 274.9C259.2 275.6 259.8 276.2 260.5 276.2Z" fill="white"/>
<path d="M274.9 276.2C275.6 276.2 276.2 275.6 276.2 274.9C276.2 274.2 275.6 273.6 274.9 273.6C274.2 273.6 273.6 274.2 273.6 274.9C273.6 275.6 274.2 276.2 274.9 276.2Z" fill="white"/>
<path d="M289.3 276.2C290 276.2 290.6 275.6 290.6 274.9C290.6 274.2 290 273.6 289.3 273.6C288.6 273.6 288 274.2 288 274.9C288 275.6 288.6 276.2 289.3 276.2Z" fill="white"/>
<path d="M303.7 276.2C304.4 276.2 305 275.6 305 274.9C305 274.2 304.4 273.6 303.7 273.6C303 273.6 302.4 274.2 302.4 274.9C302.4 275.6 303 276.2 303.7 276.2Z" fill="white"/>
<path d="M8.49995 290.6C9.19995 290.6 9.79995 290 9.79995 289.3C9.79995 288.6 9.19995 288 8.49995 288C7.79995 288 7.19995 288.6 7.19995 289.3C7.19995 290 7.79995 290.6 8.49995 290.6Z" fill="white"/>
<path d="M22.9001 290.6C23.6001 290.6 24.2001 290 24.2001 289.3C24.2001 288.6 23.6001 288 22.9001 288C22.2001 288 21.6001 288.6 21.6001 289.3C21.6001 290 22.2001 290.6 22.9001 290.6Z" fill="white"/>
<path d="M37.3 290.6C38 290.6 38.6 290 38.6 289.3C38.6 288.6 38 288 37.3 288C36.6 288 36 288.6 36 289.3C36 290 36.6 290.6 37.3 290.6Z" fill="white"/>
<path d="M51.6999 290.6C52.4179 290.6 52.9999 290.018 52.9999 289.3C52.9999 288.582 52.4179 288 51.6999 288C50.9819 288 50.3999 288.582 50.3999 289.3C50.3999 290.018 50.9819 290.6 51.6999 290.6Z" fill="white"/>
<path d="M66.1 290.6C66.8 290.6 67.4 290 67.4 289.3C67.4 288.6 66.8 288 66.1 288C65.4 288 64.8 288.6 64.8 289.3C64.8 290 65.4 290.6 66.1 290.6Z" fill="white"/>
<path d="M80.5 290.6C81.2 290.6 81.8 290 81.8 289.3C81.8 288.6 81.2 288 80.5 288C79.8 288 79.2 288.6 79.2 289.3C79.2 290 79.8 290.6 80.5 290.6Z" fill="white"/>
<path d="M94.9001 290.6C95.6001 290.6 96.2001 290 96.2001 289.3C96.2001 288.6 95.6001 288 94.9001 288C94.2001 288 93.6001 288.6 93.6001 289.3C93.6001 290 94.2001 290.6 94.9001 290.6Z" fill="white"/>
<path d="M109.3 290.6C110 290.6 110.6 290 110.6 289.3C110.6 288.6 110 288 109.3 288C108.6 288 108 288.6 108 289.3C108 290 108.6 290.6 109.3 290.6Z" fill="white"/>
<path d="M123.7 290.6C124.418 290.6 125 290.018 125 289.3C125 288.582 124.418 288 123.7 288C122.982 288 122.4 288.582 122.4 289.3C122.4 290.018 122.982 290.6 123.7 290.6Z" fill="white"/>
<path d="M138.1 290.6C138.8 290.6 139.4 290 139.4 289.3C139.4 288.6 138.8 288 138.1 288C137.4 288 136.8 288.6 136.8 289.3C136.8 290 137.4 290.6 138.1 290.6Z" fill="white"/>
<path d="M152.5 290.6C153.2 290.6 153.8 290 153.8 289.3C153.8 288.6 153.2 288 152.5 288C151.8 288 151.2 288.6 151.2 289.3C151.2 290 151.8 290.6 152.5 290.6Z" fill="white"/>
<path d="M166.9 290.6C167.6 290.6 168.2 290 168.2 289.3C168.2 288.6 167.6 288 166.9 288C166.2 288 165.6 288.6 165.6 289.3C165.6 290 166.2 290.6 166.9 290.6Z" fill="white"/>
<path d="M181.3 290.6C182 290.6 182.6 290 182.6 289.3C182.6 288.6 182 288 181.3 288C180.6 288 180 288.6 180 289.3C180 290 180.6 290.6 181.3 290.6Z" fill="white"/>
<path d="M195.7 290.6C196.418 290.6 197 290.018 197 289.3C197 288.582 196.418 288 195.7 288C194.982 288 194.4 288.582 194.4 289.3C194.4 290.018 194.982 290.6 195.7 290.6Z" fill="white"/>
<path d="M210.1 290.6C210.8 290.6 211.4 290 211.4 289.3C211.4 288.6 210.8 288 210.1 288C209.4 288 208.8 288.6 208.8 289.3C208.8 290 209.4 290.6 210.1 290.6Z" fill="white"/>
<path d="M224.5 290.6C225.2 290.6 225.8 290 225.8 289.3C225.8 288.6 225.2 288 224.5 288C223.8 288 223.2 288.6 223.2 289.3C223.2 290 223.8 290.6 224.5 290.6Z" fill="white"/>
<path d="M238.9 290.6C239.6 290.6 240.2 290 240.2 289.3C240.2 288.6 239.6 288 238.9 288C238.2 288 237.6 288.6 237.6 289.3C237.6 290 238.2 290.6 238.9 290.6Z" fill="white"/>
<path d="M253.3 290.6C254 290.6 254.6 290 254.6 289.3C254.6 288.6 254 288 253.3 288C252.6 288 252 288.6 252 289.3C252 290 252.6 290.6 253.3 290.6Z" fill="white"/>
<path d="M267.7 290.6C268.418 290.6 269 290.018 269 289.3C269 288.582 268.418 288 267.7 288C266.982 288 266.4 288.582 266.4 289.3C266.4 290.018 266.982 290.6 267.7 290.6Z" fill="white"/>
<path d="M282.1 290.6C282.8 290.6 283.4 290 283.4 289.3C283.4 288.6 282.8 288 282.1 288C281.4 288 280.8 288.6 280.8 289.3C280.8 290 281.4 290.6 282.1 290.6Z" fill="white"/>
<path d="M296.5 290.6C297.2 290.6 297.8 290 297.8 289.3C297.8 288.6 297.2 288 296.5 288C295.8 288 295.2 288.6 295.2 289.3C295.2 290 295.8 290.6 296.5 290.6Z" fill="white"/>
<path d="M310.9 290.6C311.6 290.6 312.2 290 312.2 289.3C312.2 288.6 311.6 288 310.9 288C310.2 288 309.6 288.6 309.6 289.3C309.6 290 310.2 290.6 310.9 290.6Z" fill="white"/>
<path d="M1.3 305C2 305 2.6 304.4 2.6 303.7C2.6 303 2 302.4 1.3 302.4C0.6 302.4 0 303 0 303.7C0 304.4 0.6 305 1.3 305Z" fill="white"/>
<path d="M15.6999 305C16.4179 305 16.9999 304.418 16.9999 303.7C16.9999 302.982 16.4179 302.4 15.6999 302.4C14.9819 302.4 14.3999 302.982 14.3999 303.7C14.3999 304.418 14.9819 305 15.6999 305Z" fill="white"/>
<path d="M30.1 305C30.8 305 31.4 304.4 31.4 303.7C31.4 303 30.8 302.4 30.1 302.4C29.4 302.4 28.8 303 28.8 303.7C28.8 304.4 29.4 305 30.1 305Z" fill="white"/>
<path d="M44.5 305C45.2 305 45.7999 304.4 45.7999 303.7C45.7999 303 45.2 302.4 44.5 302.4C43.8 302.4 43.2 303 43.2 303.7C43.2 304.4 43.8 305 44.5 305Z" fill="white"/>
<path d="M58.9001 305C59.6001 305 60.2001 304.4 60.2001 303.7C60.2001 303 59.6001 302.4 58.9001 302.4C58.2001 302.4 57.6001 303 57.6001 303.7C57.6001 304.4 58.2001 305 58.9001 305Z" fill="white"/>
<path d="M73.3 305C74 305 74.6 304.4 74.6 303.7C74.6 303 74 302.4 73.3 302.4C72.6 302.4 72 303 72 303.7C72 304.4 72.6 305 73.3 305Z" fill="white"/>
<path d="M87.6999 305C88.4179 305 88.9999 304.418 88.9999 303.7C88.9999 302.982 88.4179 302.4 87.6999 302.4C86.9819 302.4 86.3999 302.982 86.3999 303.7C86.3999 304.418 86.9819 305 87.6999 305Z" fill="white"/>
<path d="M102.1 305C102.8 305 103.4 304.4 103.4 303.7C103.4 303 102.8 302.4 102.1 302.4C101.4 302.4 100.8 303 100.8 303.7C100.8 304.4 101.4 305 102.1 305Z" fill="white"/>
<path d="M116.5 305C117.2 305 117.8 304.4 117.8 303.7C117.8 303 117.2 302.4 116.5 302.4C115.8 302.4 115.2 303 115.2 303.7C115.2 304.4 115.8 305 116.5 305Z" fill="white"/>
<path d="M130.9 305C131.6 305 132.2 304.4 132.2 303.7C132.2 303 131.6 302.4 130.9 302.4C130.2 302.4 129.6 303 129.6 303.7C129.6 304.4 130.2 305 130.9 305Z" fill="white"/>
<path d="M145.3 305C146 305 146.6 304.4 146.6 303.7C146.6 303 146 302.4 145.3 302.4C144.6 302.4 144 303 144 303.7C144 304.4 144.6 305 145.3 305Z" fill="white"/>
<path d="M159.7 305C160.418 305 161 304.418 161 303.7C161 302.982 160.418 302.4 159.7 302.4C158.982 302.4 158.4 302.982 158.4 303.7C158.4 304.418 158.982 305 159.7 305Z" fill="white"/>
<path d="M174.1 305C174.8 305 175.4 304.4 175.4 303.7C175.4 303 174.8 302.4 174.1 302.4C173.4 302.4 172.8 303 172.8 303.7C172.8 304.4 173.4 305 174.1 305Z" fill="white"/>
<path d="M188.5 305C189.2 305 189.8 304.4 189.8 303.7C189.8 303 189.2 302.4 188.5 302.4C187.8 302.4 187.2 303 187.2 303.7C187.2 304.4 187.8 305 188.5 305Z" fill="white"/>
<path d="M202.9 305C203.6 305 204.2 304.4 204.2 303.7C204.2 303 203.6 302.4 202.9 302.4C202.2 302.4 201.6 303 201.6 303.7C201.6 304.4 202.2 305 202.9 305Z" fill="white"/>
<path d="M217.3 305C218 305 218.6 304.4 218.6 303.7C218.6 303 218 302.4 217.3 302.4C216.6 302.4 216 303 216 303.7C216 304.4 216.6 305 217.3 305Z" fill="white"/>
<path d="M231.7 305C232.418 305 233 304.418 233 303.7C233 302.982 232.418 302.4 231.7 302.4C230.982 302.4 230.4 302.982 230.4 303.7C230.4 304.418 230.982 305 231.7 305Z" fill="white"/>
<path d="M246.1 305C246.8 305 247.4 304.4 247.4 303.7C247.4 303 246.8 302.4 246.1 302.4C245.4 302.4 244.8 303 244.8 303.7C244.8 304.4 245.4 305 246.1 305Z" fill="white"/>
<path d="M260.5 305C261.2 305 261.8 304.4 261.8 303.7C261.8 303 261.2 302.4 260.5 302.4C259.8 302.4 259.2 303 259.2 303.7C259.2 304.4 259.8 305 260.5 305Z" fill="white"/>
<path d="M274.9 305C275.6 305 276.2 304.4 276.2 303.7C276.2 303 275.6 302.4 274.9 302.4C274.2 302.4 273.6 303 273.6 303.7C273.6 304.4 274.2 305 274.9 305Z" fill="white"/>
<path d="M289.3 305C290 305 290.6 304.4 290.6 303.7C290.6 303 290 302.4 289.3 302.4C288.6 302.4 288 303 288 303.7C288 304.4 288.6 305 289.3 305Z" fill="white"/>
<path d="M303.7 305C304.418 305 305 304.418 305 303.7C305 302.982 304.418 302.4 303.7 302.4C302.982 302.4 302.4 302.982 302.4 303.7C302.4 304.418 302.982 305 303.7 305Z" fill="white"/>
</svg>
