<svg xmlns="http://www.w3.org/2000/svg" viewBox="0 0 139 142.75"><defs><style>.cls-1{fill:#fff;}</style></defs><title>copy-voice-nav</title><g id="Capa_2" data-name="Capa 2"><g id="Capa_1-2" data-name="Capa 1"><path class="cls-1" d="M16.21,96.08a.2.2,0,0,1,.12.12L17,97.73a.25.25,0,0,1,0,.17.23.23,0,0,1-.12.12L5.58,102.63a.15.15,0,0,1-.16,0,.22.22,0,0,1-.12-.11L4.69,101a.26.26,0,0,1,0-.28l5.89-8a.07.07,0,0,0,0-.08s-.05,0-.09,0L2.8,95.86a.22.22,0,0,1-.16,0,.23.23,0,0,1-.12-.12l-.63-1.53a.25.25,0,0,1,0-.17A.22.22,0,0,1,2,93.93l11.26-4.62a.15.15,0,0,1,.16,0,.19.19,0,0,1,.12.11l.61,1.49a.26.26,0,0,1,0,.28l-5.9,8s0,.06,0,.08,0,0,.08,0l7.76-3.2A.22.22,0,0,1,16.21,96.08Z"/><path class="cls-1" d="M18,106.32a3.22,3.22,0,0,1-.21,1.71,2.7,2.7,0,0,1-1.08,1.24l-5.12,3.25a.18.18,0,0,1-.16,0,.22.22,0,0,1-.14-.09l-.88-1.4a.16.16,0,0,1,0-.16.19.19,0,0,1,.09-.14l.49-.31s0,0,0-.06,0,0-.06,0a3.28,3.28,0,0,1-2.19-1.63,3.55,3.55,0,0,1-.62-2.25,2.47,2.47,0,0,1,1.25-1.83,2.66,2.66,0,0,1,2.38-.34,4.34,4.34,0,0,1,2.14,1.91l1,1.63s.07.06.13,0l.36-.24a1.43,1.43,0,0,0,.7-.93,1.81,1.81,0,0,0-.34-1.26,2.25,2.25,0,0,0-.8-.8,1.09,1.09,0,0,0-.86-.09.19.19,0,0,1-.28-.11L13,102.84a.5.5,0,0,1,0-.16.12.12,0,0,1,.08-.11,2.53,2.53,0,0,1,2.15,0,4.57,4.57,0,0,1,2,1.82A4.9,4.9,0,0,1,18,106.32Zm-6.38,3a1.43,1.43,0,0,0,1.34-.1l.72-.46a.08.08,0,0,0,0-.12l-.82-1.28a2.73,2.73,0,0,0-1.11-1.07,1.15,1.15,0,0,0-1.16.09,1,1,0,0,0-.52.83,1.76,1.76,0,0,0,.32,1.09A2.41,2.41,0,0,0,11.57,109.28Z"/><path class="cls-1" d="M15.11,117.05l4.73-8a.19.19,0,0,1,.06-.07c.08-.07.16-.06.25,0l1.2,1.39a.23.23,0,0,1,0,.31L18,116s0,.06,0,.07a.08.08,0,0,0,.08,0l5.68-2.63a.24.24,0,0,1,.3.08L25.22,115a.17.17,0,0,1,.06.16.22.22,0,0,1-.13.14l-8.49,3.56a.23.23,0,0,1-.29-.06l-1.24-1.42A.23.23,0,0,1,15.11,117.05Z"/><path class="cls-1" d="M29.35,124.64l-.38.41a.18.18,0,0,1-.3,0l-4.28-3.66c-.05,0-.09,0-.13,0a2.46,2.46,0,0,0-.4.72,2,2,0,0,0,.74,2.37,2.27,2.27,0,0,0,2.14.49.2.2,0,0,1,.2,0,.14.14,0,0,1,.06.12l.25,1.43a.19.19,0,0,1-.14.25,3.62,3.62,0,0,1-1.93,0,4.79,4.79,0,0,1-1.84-1,4.28,4.28,0,0,1-1.4-2,3.54,3.54,0,0,1,.06-2.27,7.09,7.09,0,0,1,1.44-2.32A5.25,5.25,0,0,1,24.7,118,3.59,3.59,0,0,1,27,117.4a3.94,3.94,0,0,1,2.3,1c1.79,1.53,2,3.34.62,5.41A7.33,7.33,0,0,1,29.35,124.64Zm-2.25-5.33a1.81,1.81,0,0,0-1.08.3,3.5,3.5,0,0,0-.62.51c-.06,0-.06.06,0,.11l2.77,2.38a.09.09,0,0,0,.13,0,3.09,3.09,0,0,0,.36-.59,1.71,1.71,0,0,0,.17-1.18,2,2,0,0,0-.67-1.06A1.82,1.82,0,0,0,27.1,119.31Z"/><path class="cls-1" d="M38.93,125.44a.18.18,0,0,1,.16,0l1.42.86a.24.24,0,0,1,.1.14.23.23,0,0,1,0,.16l-4.35,7.15a3.78,3.78,0,0,1-2.77,2.08,5.53,5.53,0,0,1-3.38-.93c-.32-.2-.62-.4-.91-.62a.2.2,0,0,1-.05-.3l.81-1.24c.07-.11.18-.12.32,0s.54.38.77.53a3.08,3.08,0,0,0,2,.58,2.21,2.21,0,0,0,1.48-1.2l.07-.12a.06.06,0,0,0,0-.08.08.08,0,0,0-.07,0,2.7,2.7,0,0,1-2.2-.41,4,4,0,0,1-1.52-1.62,3.08,3.08,0,0,1-.21-2.25,8.35,8.35,0,0,1,.93-2,7,7,0,0,1,1.44-1.8,3.46,3.46,0,0,1,2-.85A3.37,3.37,0,0,1,37,124a2.89,2.89,0,0,1,1.46,1.86.07.07,0,0,0,0,.07s0,0,.07,0l.23-.37A.18.18,0,0,1,38.93,125.44ZM36,130.08a10.12,10.12,0,0,0,.55-.85c.24-.39.4-.68.49-.86a2.2,2.2,0,0,0,.2-.56,1.66,1.66,0,0,0,0-1.12,1.79,1.79,0,0,0-.78-.89,1.7,1.7,0,0,0-1.12-.26,2,2,0,0,0-1.05.48,4.24,4.24,0,0,0-1,1.24,5,5,0,0,0-.66,1.43,2,2,0,0,0,.07,1.15,1.87,1.87,0,0,0,.79.91,1.69,1.69,0,0,0,1.15.28,1.75,1.75,0,0,0,1-.5A2.87,2.87,0,0,0,36,130.08Z"/><path class="cls-1" d="M47.89,129.82a3.09,3.09,0,0,1,.82,1.51,2.71,2.71,0,0,1-.16,1.63l-2.28,5.62a.23.23,0,0,1-.12.12.25.25,0,0,1-.17,0l-1.53-.62a.2.2,0,0,1-.12-.12.22.22,0,0,1,0-.16l.22-.54s0-.06,0-.07a.08.08,0,0,0-.08,0,3.23,3.23,0,0,1-2.73-.07,3.36,3.36,0,0,1-1.8-1.47,2.41,2.41,0,0,1,0-2.21,2.66,2.66,0,0,1,1.74-1.66,4.35,4.35,0,0,1,2.85.32l1.79.73a.08.08,0,0,0,.11-.05l.17-.4a1.45,1.45,0,0,0,0-1.17,1.73,1.73,0,0,0-1-.82,2.2,2.2,0,0,0-1.12-.2,1.11,1.11,0,0,0-.75.43.2.2,0,0,1-.3.07l-1.53-.86a.43.43,0,0,1-.12-.11.1.1,0,0,1,0-.13,2.54,2.54,0,0,1,1.77-1.22,4.45,4.45,0,0,1,2.68.33A4.76,4.76,0,0,1,47.89,129.82Zm-3.48,6.1a1.4,1.4,0,0,0,1-.86l.32-.78a.08.08,0,0,0,0-.12l-1.4-.57a2.67,2.67,0,0,0-1.53-.23,1.14,1.14,0,0,0-.89.74,1,1,0,0,0,.06,1,1.74,1.74,0,0,0,.89.7A2.39,2.39,0,0,0,44.41,135.92Z"/><path class="cls-1" d="M51.34,139.7a3.62,3.62,0,0,1-.93-2.18,6.31,6.31,0,0,1,.21-2.17,6.43,6.43,0,0,1,.76-2,3.48,3.48,0,0,1,1.78-1.52,4.14,4.14,0,0,1,2.5-.13,4.28,4.28,0,0,1,2.23,1.24,3.33,3.33,0,0,1,1,2,3.88,3.88,0,0,1,0,.59v0a.21.21,0,0,1-.24.17L57,135.62h0a.22.22,0,0,1-.17-.22.44.44,0,0,0,0-.15c0-.1,0-.18,0-.26a1.54,1.54,0,0,0-.45-.95,1.94,1.94,0,0,0-1-.58,1.9,1.9,0,0,0-1.21.08,1.74,1.74,0,0,0-.84.79,5.72,5.72,0,0,0-.53,1.52,6.68,6.68,0,0,0-.21,1.6,1.87,1.87,0,0,0,.41,1.12,1.74,1.74,0,0,0,1.05.62,2,2,0,0,0,1.23-.07,1.6,1.6,0,0,0,.84-.78l0-.08a.05.05,0,0,0,0-.05.21.21,0,0,1,.29-.12l1.52.62a.24.24,0,0,1,.13.11.22.22,0,0,1,0,.18c-.08.17-.14.3-.19.38a3.19,3.19,0,0,1-1.76,1.46,4.44,4.44,0,0,1-2.54.11A4,4,0,0,1,51.34,139.7Z"/><path class="cls-1" d="M60.8,142a.19.19,0,0,1,0-.16l1-8.73a.21.21,0,0,1,.07-.15.24.24,0,0,1,.16,0l1.65.18a.28.28,0,0,1,.15.08.23.23,0,0,1,0,.16l-1,8.73a.19.19,0,0,1-.08.15.18.18,0,0,1-.16,0L61,142.1A.28.28,0,0,1,60.8,142Zm1.26-10.68a1.28,1.28,0,0,1-.26-1,1.28,1.28,0,1,1,2.55.28,1.29,1.29,0,0,1-.46.87,1.22,1.22,0,0,1-1,.26A1.28,1.28,0,0,1,62.06,131.34Z"/><path class="cls-1" d="M68.17,142.06a3.67,3.67,0,0,1-1.46-2,6.62,6.62,0,0,1-.34-2.05,6.51,6.51,0,0,1,.25-2A3.67,3.67,0,0,1,68,134a4.18,4.18,0,0,1,2.45-.74,4,4,0,0,1,2.38.66,3.73,3.73,0,0,1,1.44,1.92,5.73,5.73,0,0,1,.36,2,6.68,6.68,0,0,1-.27,2.06A3.92,3.92,0,0,1,73,142a4,4,0,0,1-2.38.76A4.06,4.06,0,0,1,68.17,142.06Zm3.56-1.51a2.2,2.2,0,0,0,.67-1.08,5.36,5.36,0,0,0,.16-1.51,4.82,4.82,0,0,0-.21-1.51,2,2,0,0,0-.7-1,2,2,0,0,0-2.34,0,2,2,0,0,0-.68,1.06,5.29,5.29,0,0,0-.16,1.52,5.5,5.5,0,0,0,.21,1.51,2,2,0,0,0,.71,1.05,1.92,1.92,0,0,0,1.2.35A1.75,1.75,0,0,0,71.73,140.55Zm-2.42-8.35a.2.2,0,0,1,0-.18l1-1.87a.26.26,0,0,1,.27-.15L72,130a.15.15,0,0,1,.17.08.17.17,0,0,1,0,.18l-1.22,1.86a.26.26,0,0,1-.25.15l-1.18,0C69.39,132.27,69.34,132.25,69.31,132.2Z"/><path class="cls-1" d="M83.41,132.68a3.15,3.15,0,0,1,1.26,2.17l1,5.81a.21.21,0,0,1,0,.17.18.18,0,0,1-.14.08l-1.63.29a.19.19,0,0,1-.16,0,.19.19,0,0,1-.09-.14l-.94-5.39a2,2,0,0,0-.69-1.24,1.61,1.61,0,0,0-1.31-.29,1.68,1.68,0,0,0-1.15.71,1.93,1.93,0,0,0-.24,1.4l1,5.41a.19.19,0,0,1,0,.16.19.19,0,0,1-.14.09l-1.63.28a.22.22,0,0,1-.16,0,.22.22,0,0,1-.09-.14l-1.51-8.64a.22.22,0,0,1,0-.16.22.22,0,0,1,.14-.09l1.64-.28a.23.23,0,0,1,.16,0,.22.22,0,0,1,.09.14l.09.57s0,.06,0,.06,0,0,.05,0a2.62,2.62,0,0,1,2-1.34A3.16,3.16,0,0,1,83.41,132.68Z"/><path class="cls-1" d="M99.71,131a6.79,6.79,0,0,1,.59,2.14,3.81,3.81,0,0,1-.43,2.2,3.56,3.56,0,0,1-1.77,1.48,2.54,2.54,0,0,1-2.25,0,.06.06,0,0,0-.07,0,.06.06,0,0,0,0,.08l1.54,3.59a.25.25,0,0,1,0,.17.23.23,0,0,1-.12.12l-1.52.65a.22.22,0,0,1-.16,0,.19.19,0,0,1-.12-.11l-4.8-11.19a.15.15,0,0,1,0-.16.19.19,0,0,1,.11-.12l1.52-.65a.2.2,0,0,1,.17,0,.28.28,0,0,1,.12.12l.21.5a.06.06,0,0,0,.06,0s0,0,0-.06a2.59,2.59,0,0,1,1.54-1.68,3.41,3.41,0,0,1,2.24-.24,3.79,3.79,0,0,1,1.91,1.2A6.78,6.78,0,0,1,99.71,131Zm-2,.8a4.28,4.28,0,0,0-1.21-1.73,1.66,1.66,0,0,0-1.76-.2,1.5,1.5,0,0,0-1,1.34,4.17,4.17,0,0,0,.45,2.09,4.11,4.11,0,0,0,1.26,1.8,1.49,1.49,0,0,0,1.55.2,1.6,1.6,0,0,0,1-1.27A4,4,0,0,0,97.75,131.81Z"/><path class="cls-1" d="M105.72,132.17a3.84,3.84,0,0,1-2.29-.91,7.07,7.07,0,0,1-1.36-1.56,6.67,6.67,0,0,1-.87-1.88,3.73,3.73,0,0,1,.15-2.43,4.23,4.23,0,0,1,1.7-1.93,4,4,0,0,1,2.37-.69,3.79,3.79,0,0,1,2.24.88A5.9,5.9,0,0,1,109,125.2a6.43,6.43,0,0,1,.85,1.89,3.88,3.88,0,0,1-.11,2.46,4,4,0,0,1-1.62,1.9A4.12,4.12,0,0,1,105.72,132.17Zm2.22-3.17a2.08,2.08,0,0,0,0-1.26,6.39,6.39,0,0,0-1.63-2.55,2,2,0,0,0-1.15-.51,1.84,1.84,0,0,0-1.2.33,1.87,1.87,0,0,0-.77.93,2.1,2.1,0,0,0,0,1.27,5.66,5.66,0,0,0,.67,1.36,5.51,5.51,0,0,0,1,1.18,1.86,1.86,0,0,0,2.36.19A1.74,1.74,0,0,0,107.94,129Z"/><path class="cls-1" d="M112.44,116.53a.23.23,0,0,1,.26.13l.82,1.43c.09.12,0,.2-.11.26a1.88,1.88,0,0,0-.53.34,2.15,2.15,0,0,0-.26.25,1.84,1.84,0,0,0-.61,1.22,1.71,1.71,0,0,0,.46,1.31l3.32,3.86a.24.24,0,0,1,0,.16.16.16,0,0,1-.08.14l-1.25,1.08a.25.25,0,0,1-.16.06.18.18,0,0,1-.14-.08l-5.72-6.64a.19.19,0,0,1,0-.16.18.18,0,0,1,.07-.15l1.26-1.08a.2.2,0,0,1,.15,0,.21.21,0,0,1,.15.07l.53.62s.06,0,.07,0,0,0,0-.07a2.37,2.37,0,0,1,.83-2.26A2.15,2.15,0,0,1,112.44,116.53Z"/><path class="cls-1" d="M125,115.91l-8.71-3.11-.08,0c-.08-.07-.09-.15,0-.26l1.12-1.45a.24.24,0,0,1,.3-.08l5.82,2.31a0,0,0,0,0,.07,0s0,0,0-.07l-3.67-5.07a.23.23,0,0,1,0-.31l1.15-1.43a.2.2,0,0,1,.15-.09.19.19,0,0,1,.16.1l5.13,7.65a.23.23,0,0,1,0,.3l-1.16,1.49A.23.23,0,0,1,125,115.91Z"/><path class="cls-1" d="M130.09,108a3.75,3.75,0,0,1-2.44.27,7.33,7.33,0,0,1-3.59-2,3.65,3.65,0,0,1-1-2.22,4.19,4.19,0,0,1,.59-2.49,4,4,0,0,1,1.77-1.72,3.74,3.74,0,0,1,2.39-.28,5.7,5.7,0,0,1,1.95.72,6.74,6.74,0,0,1,1.64,1.27,3.89,3.89,0,0,1,1,2.23,4,4,0,0,1-.54,2.44A4,4,0,0,1,130.09,108Zm.48-3.83a2.09,2.09,0,0,0-.58-1.13,5.76,5.76,0,0,0-1.23-.9,5.24,5.24,0,0,0-1.41-.58,2,2,0,0,0-1.25.08,2.08,2.08,0,0,0-1.15,2,2.09,2.09,0,0,0,.58,1.13,5.29,5.29,0,0,0,1.23.9,5.42,5.42,0,0,0,1.4.58,2,2,0,0,0,1.27-.08,1.93,1.93,0,0,0,.91-.86A1.73,1.73,0,0,0,130.57,104.19Z"/><path class="cls-1" d="M135,99.72a.25.25,0,0,1-.17,0l-1.43-.54a.37.37,0,0,1-.21-.17l-3.3-6c0-.08-.09-.08-.12,0l-1.47,3.9a.25.25,0,0,1-.11.12.25.25,0,0,1-.17,0l-1.36-.51a.23.23,0,0,1-.13-.28l2.31-6.13a.23.23,0,0,1,.28-.13l1.43.54a.37.37,0,0,1,.2.19l3.28,6.06c.05.07.09.07.12,0l1.55-4.13a.25.25,0,0,1,.11-.12.25.25,0,0,1,.17,0l1.36.51a.19.19,0,0,1,.12.11.2.2,0,0,1,0,.17l-2.36,6.27A.25.25,0,0,1,135,99.72Z"/><path class="cls-1" d="M4.68,41.77a.22.22,0,0,1,0-.16l.63-1.53A.23.23,0,0,1,5.43,40a.2.2,0,0,1,.17,0l11.25,4.62a.18.18,0,0,1,.12.12.22.22,0,0,1,0,.16l-.61,1.49a.24.24,0,0,1-.23.17L6.3,48.09a.1.1,0,0,0-.07,0,.07.07,0,0,0,.06.06l7.78,3.16a.2.2,0,0,1,.11.11.17.17,0,0,1,0,.17l-.63,1.53a.19.19,0,0,1-.11.12.25.25,0,0,1-.17,0L2,48.67a.23.23,0,0,1-.12-.12.25.25,0,0,1,0-.17l.61-1.48a.26.26,0,0,1,.23-.18l9.82-1.55s.07,0,.07-.05,0,0-.06-.06L4.8,41.89A.23.23,0,0,1,4.68,41.77Z"/><path class="cls-1" d="M13.49,33.43a3.23,3.23,0,0,1,1.64-.54,2.79,2.79,0,0,1,1.58.46l5.12,3.25a.2.2,0,0,1,.09.13.25.25,0,0,1,0,.17L21,38.3a.18.18,0,0,1-.13.09.25.25,0,0,1-.17,0l-.48-.31s-.06,0-.07,0a.06.06,0,0,0,0,.07,3.27,3.27,0,0,1-.55,2.68,3.44,3.44,0,0,1-1.77,1.51A2.43,2.43,0,0,1,15.62,42a2.64,2.64,0,0,1-1.32-2,4.34,4.34,0,0,1,.83-2.76l1-1.62a.09.09,0,0,0,0-.13l-.36-.23A1.4,1.4,0,0,0,14.63,35a1.74,1.74,0,0,0-1,.84,2.17,2.17,0,0,0-.38,1.06,1,1,0,0,0,.28.81.21.21,0,0,1,0,.31l-1.12,1.36a.61.61,0,0,1-.14.1s-.09,0-.12,0a2.53,2.53,0,0,1-.89-2,4.58,4.58,0,0,1,.81-2.57A4.76,4.76,0,0,1,13.49,33.43ZM18.88,38a1.43,1.43,0,0,0-.67-1.17l-.71-.46a.08.08,0,0,0-.12,0l-.82,1.28a2.75,2.75,0,0,0-.5,1.46,1.17,1.17,0,0,0,.57,1,1,1,0,0,0,1,.12,1.72,1.72,0,0,0,.85-.75A2.4,2.4,0,0,0,18.88,38Z"/><path class="cls-1" d="M24.38,33.56,15.85,30a.18.18,0,0,1-.08-.05c-.08-.07-.08-.15,0-.25L17,28.29a.24.24,0,0,1,.3-.07L23,30.85a.06.06,0,0,0,.07,0,.06.06,0,0,0,0-.08l-3.39-5.26a.23.23,0,0,1,0-.31l1.23-1.36a.19.19,0,0,1,.15-.08.19.19,0,0,1,.16.11l4.71,7.91a.24.24,0,0,1,0,.3L24.67,33.5A.23.23,0,0,1,24.38,33.56Z"/><path class="cls-1" d="M31.57,20.5l.34.43a.19.19,0,0,1,0,.31L27.61,24.9c-.05,0-.05.08,0,.12a2.36,2.36,0,0,0,.65.51,2,2,0,0,0,2.45-.37,2.22,2.22,0,0,0,.82-2,.22.22,0,0,1,.07-.2.16.16,0,0,1,.13,0l1.45,0a.18.18,0,0,1,.22.18,3.61,3.61,0,0,1-.33,1.9,4.71,4.71,0,0,1-1.29,1.66,4.35,4.35,0,0,1-2.22,1.08,3.66,3.66,0,0,1-2.23-.42,7,7,0,0,1-2.07-1.78,5.69,5.69,0,0,1-.94-1.43,3.61,3.61,0,0,1-.25-2.39,4,4,0,0,1,1.35-2.12c1.8-1.53,3.61-1.46,5.45.23A6.08,6.08,0,0,1,31.57,20.5ZM26,21.89A1.81,1.81,0,0,0,26.08,23a3.38,3.38,0,0,0,.41.7c0,.06.06.07.11,0l2.78-2.37a.09.09,0,0,0,0-.13,3.43,3.43,0,0,0-.53-.45,1.69,1.69,0,0,0-1.14-.35,1.88,1.88,0,0,0-1.14.5A1.78,1.78,0,0,0,26,21.89Z"/><path class="cls-1" d="M36,12.32a.2.2,0,0,1,.09-.13l1.42-.86a.18.18,0,0,1,.16,0,.22.22,0,0,1,.14.09l4.34,7.16A3.74,3.74,0,0,1,42.73,22a5.54,5.54,0,0,1-2.38,2.58c-.32.19-.64.36-1,.52a.2.2,0,0,1-.29-.1l-.72-1.29c-.07-.11,0-.21.11-.3a7.83,7.83,0,0,0,.83-.44,3,3,0,0,0,1.42-1.48,2.21,2.21,0,0,0-.38-1.87l-.08-.12a0,0,0,0,0-.06,0s0,0-.05.06a2.71,2.71,0,0,1-1.37,1.76,4.1,4.1,0,0,1-2.14.6,3.09,3.09,0,0,1-2.1-.85,8.5,8.5,0,0,1-1.33-1.74,7.18,7.18,0,0,1-.94-2.1A3.57,3.57,0,0,1,32.43,15a3.36,3.36,0,0,1,1.43-1.63,2.92,2.92,0,0,1,2.32-.45s.07,0,.08,0,0,0,0-.08L36,12.49A.2.2,0,0,1,36,12.32Zm2.77,4.74a10,10,0,0,0-.51-.88c-.23-.39-.41-.66-.53-.83a2.72,2.72,0,0,0-.4-.43,1.77,1.77,0,0,0-1-.52,1.9,1.9,0,0,0-1.9,1.16,2,2,0,0,0-.06,1.15A4.65,4.65,0,0,0,35,18.18a4.73,4.73,0,0,0,1,1.24,1.83,1.83,0,0,0,2.22.19,1.68,1.68,0,0,0,.78-.9,1.72,1.72,0,0,0,0-1.1A3.5,3.5,0,0,0,38.78,17.06Z"/><path class="cls-1" d="M45.92,7.89a3.24,3.24,0,0,1,1.64.5,2.81,2.81,0,0,1,1,1.29l2.28,5.62a.22.22,0,0,1,0,.16.18.18,0,0,1-.12.12l-1.53.62a.25.25,0,0,1-.17,0,.19.19,0,0,1-.11-.12l-.22-.53s0-.05-.06,0,0,0,0,.05a3.3,3.3,0,0,1-2,1.86,3.43,3.43,0,0,1-2.31.2,2.43,2.43,0,0,1-1.58-1.55,2.65,2.65,0,0,1,.09-2.4,4.28,4.28,0,0,1,2.26-1.76l1.79-.73a.09.09,0,0,0,0-.12l-.17-.4a1.42,1.42,0,0,0-.79-.85,1.79,1.79,0,0,0-1.3.11,2.25,2.25,0,0,0-.93.64,1.07,1.07,0,0,0-.24.83.2.2,0,0,1-.16.26l-1.7.46h-.17a.11.11,0,0,1-.08-.1,2.52,2.52,0,0,1,.41-2.11,4.58,4.58,0,0,1,2.15-1.63A4.76,4.76,0,0,1,45.92,7.89Zm1.77,6.8a1.41,1.41,0,0,0,.13-1.34l-.31-.79c0-.05-.07-.07-.12,0l-1.4.57a2.66,2.66,0,0,0-1.26.89,1.15,1.15,0,0,0-.12,1.16,1,1,0,0,0,.73.67,1.72,1.72,0,0,0,1.12-.12A2.47,2.47,0,0,0,47.69,14.69Z"/><path class="cls-1" d="M54,14.07a3.72,3.72,0,0,1-1.8-1.55,6.7,6.7,0,0,1-.77-2,6.77,6.77,0,0,1-.2-2.13,3.49,3.49,0,0,1,.94-2.15A4.2,4.2,0,0,1,54.33,5a4.3,4.3,0,0,1,2.55.13,3.4,3.4,0,0,1,1.75,1.41,3.65,3.65,0,0,1,.25.53v0a.21.21,0,0,1-.15.25l-1.52.59h0a.2.2,0,0,1-.25-.12.38.38,0,0,0,0-.14,2.36,2.36,0,0,0-.13-.23,1.57,1.57,0,0,0-.81-.66,2.11,2.11,0,0,0-1.2-.06,2,2,0,0,0-1.05.61,1.72,1.72,0,0,0-.41,1.08,5.77,5.77,0,0,0,.19,1.6A6.43,6.43,0,0,0,54,11.55a1.89,1.89,0,0,0,.86.82,1.85,1.85,0,0,0,1.22.1,2,2,0,0,0,1.07-.61,1.6,1.6,0,0,0,.41-1.06.38.38,0,0,0,0-.1,0,0,0,0,0,0,0c0-.15.07-.23.2-.23l1.64-.12a.25.25,0,0,1,.17,0,.19.19,0,0,1,.08.16c0,.19,0,.33,0,.42A3.23,3.23,0,0,1,58.71,13a4.37,4.37,0,0,1-2.24,1.21A4,4,0,0,1,54,14.07Z"/><path class="cls-1" d="M61.14,2.29a1.25,1.25,0,0,1-.46-.87,1.25,1.25,0,0,1,.26-.95,1.35,1.35,0,0,1,1.83-.2,1.24,1.24,0,0,1,.45.87,1.21,1.21,0,0,1-.26,1,1.21,1.21,0,0,1-.87.46A1.25,1.25,0,0,1,61.14,2.29ZM62.2,13a.16.16,0,0,1-.08-.14l-.95-8.73a.22.22,0,0,1,0-.16.22.22,0,0,1,.15-.08L63,3.7a.19.19,0,0,1,.16,0,.18.18,0,0,1,.08.14l.94,8.74a.2.2,0,0,1,0,.15.19.19,0,0,1-.15.08L62.35,13A.17.17,0,0,1,62.2,13Z"/><path class="cls-1" d="M68,12a3.78,3.78,0,0,1-1.4-2,7,7,0,0,1-.27-2.06,6.73,6.73,0,0,1,.32-2,3.68,3.68,0,0,1,1.47-1.93,4.29,4.29,0,0,1,2.48-.67A4,4,0,0,1,73,4a3.68,3.68,0,0,1,1.38,2A5.64,5.64,0,0,1,74.63,8a6.57,6.57,0,0,1-.33,2.05,3.92,3.92,0,0,1-1.46,2,4,4,0,0,1-2.4.69A4.15,4.15,0,0,1,68,12Zm3.6-1.4a2.1,2.1,0,0,0,.71-1A5.17,5.17,0,0,0,72.53,8a4.75,4.75,0,0,0-.16-1.51,1.93,1.93,0,0,0-.66-1.07,2,2,0,0,0-1.19-.39,1.87,1.87,0,0,0-1.15.35,2,2,0,0,0-.72,1A5.37,5.37,0,0,0,68.44,8a5.67,5.67,0,0,0,.16,1.52,2,2,0,0,0,.67,1.07,1.94,1.94,0,0,0,1.19.4A1.74,1.74,0,0,0,71.61,10.6ZM69.47,2.18a.24.24,0,0,1,0-.18l1-1.84A.27.27,0,0,1,70.79,0l1.42,0a.18.18,0,0,1,.17.09.16.16,0,0,1,0,.18L71.08,2.13a.31.31,0,0,1-.26.14l-1.19,0A.19.19,0,0,1,69.47,2.18Z"/><path class="cls-1" d="M84.18,5.65a3.13,3.13,0,0,1,.45,2.48l-1,5.81a.22.22,0,0,1-.08.14.21.21,0,0,1-.17,0l-1.63-.29a.22.22,0,0,1-.14-.09.22.22,0,0,1,0-.16l.94-5.39a1.88,1.88,0,0,0-.23-1.4,1.58,1.58,0,0,0-1.13-.72,1.62,1.62,0,0,0-1.32.28,1.9,1.9,0,0,0-.7,1.23l-1,5.41a.22.22,0,0,1-.09.14.22.22,0,0,1-.16,0l-1.63-.28a.19.19,0,0,1-.14-.09.18.18,0,0,1,0-.16L77.63,4a.22.22,0,0,1,.09-.14.22.22,0,0,1,.16,0l1.63.28a.19.19,0,0,1,.14.09.23.23,0,0,1,0,.16l-.1.57a.07.07,0,0,0,0,.08s0,0,.06,0A2.64,2.64,0,0,1,82,4.4,3.2,3.2,0,0,1,84.18,5.65Z"/><path class="cls-1" d="M98.39,14.8a6.92,6.92,0,0,1-1.14,1.9,3.8,3.8,0,0,1-1.9,1.2,3.52,3.52,0,0,1-2.29-.26A2.52,2.52,0,0,1,91.54,16s0-.05-.06-.05,0,0-.06.06l-1.55,3.58a.18.18,0,0,1-.12.12.22.22,0,0,1-.16,0L88.07,19a.18.18,0,0,1-.12-.12.22.22,0,0,1,0-.16L92.76,7.58a.25.25,0,0,1,.12-.11.17.17,0,0,1,.17,0l1.52.65a.22.22,0,0,1,.11.12.25.25,0,0,1,0,.17l-.21.49a.06.06,0,0,0,0,.08s0,0,.08,0a2.55,2.55,0,0,1,2.27,0,3.39,3.39,0,0,1,1.72,1.46A3.7,3.7,0,0,1,99,12.61,7,7,0,0,1,98.39,14.8Zm-1.93-.87a4.29,4.29,0,0,0,.42-2.07,1.68,1.68,0,0,0-1.06-1.42,1.53,1.53,0,0,0-1.63.24A4.24,4.24,0,0,0,93,12.44a4.25,4.25,0,0,0-.44,2.16,1.48,1.48,0,0,0,.93,1.26,1.61,1.61,0,0,0,1.62-.12A4,4,0,0,0,96.46,13.93Z"/><path class="cls-1" d="M99.57,20.1a3.85,3.85,0,0,1-.13-2.45,6.69,6.69,0,0,1,.86-1.89,6.42,6.42,0,0,1,1.35-1.57,3.66,3.66,0,0,1,2.27-.87,4.22,4.22,0,0,1,2.46.74A4.12,4.12,0,0,1,108,15.93a3.78,3.78,0,0,1,.13,2.4,6,6,0,0,1-.83,1.9,6.39,6.39,0,0,1-1.37,1.56,3.85,3.85,0,0,1-2.28.92,4,4,0,0,1-2.41-.68A4,4,0,0,1,99.57,20.1Zm3.8.72a2.2,2.2,0,0,0,1.16-.52,5.7,5.7,0,0,0,1-1.18,4.84,4.84,0,0,0,.66-1.36,1.94,1.94,0,0,0,0-1.26,1.92,1.92,0,0,0-.8-.95,1.89,1.89,0,0,0-1.17-.32,2.08,2.08,0,0,0-1.16.51,6.43,6.43,0,0,0-1.64,2.54,2,2,0,0,0,0,1.27,2,2,0,0,0,.8,1A1.8,1.8,0,0,0,103.37,20.82Z"/><path class="cls-1" d="M116.07,21.9a.23.23,0,0,1-.09.28l-1.29,1c-.1.1-.19.08-.27-.07a2.25,2.25,0,0,0-.42-.48,2.6,2.6,0,0,0-1.59-.64,1.76,1.76,0,0,0-1.22.64l-3.32,3.86a.19.19,0,0,1-.15.08.24.24,0,0,1-.16-.05l-1.25-1.08a.22.22,0,0,1-.08-.15.3.3,0,0,1,0-.16L112,18.52a.22.22,0,0,1,.15-.08.25.25,0,0,1,.16.06l1.25,1.08a.23.23,0,0,1,.08.14.22.22,0,0,1,0,.16l-.53.62s0,.06,0,.07,0,0,.07,0a2.38,2.38,0,0,1,2.36.49A2.05,2.05,0,0,1,116.07,21.9Z"/><path class="cls-1" d="M115.35,34.24l5.15-7.68a.19.19,0,0,1,.06-.07c.09-.06.17,0,.25.06L121.94,28a.24.24,0,0,1,0,.31l-3.67,5.07a.06.06,0,0,0,0,.07.06.06,0,0,0,.08,0l5.81-2.31a.23.23,0,0,1,.3.09l1.1,1.47a.2.2,0,0,1,0,.16c0,.06-.06.1-.14.13l-8.67,3.11a.23.23,0,0,1-.29-.08l-1.16-1.49A.24.24,0,0,1,115.35,34.24Z"/><path class="cls-1" d="M120.13,40.24A3.83,3.83,0,0,1,121.18,38a7.21,7.21,0,0,1,3.57-2,3.67,3.67,0,0,1,2.41.3,4.26,4.26,0,0,1,1.82,1.8,4,4,0,0,1,.55,2.41,3.76,3.76,0,0,1-1,2.18A5.81,5.81,0,0,1,126.89,44a6.38,6.38,0,0,1-1.94.74,3.88,3.88,0,0,1-2.44-.26,4,4,0,0,1-1.81-1.73A4.2,4.2,0,0,1,120.13,40.24Zm3,2.41a2.12,2.12,0,0,0,1.26.08,4.9,4.9,0,0,0,1.41-.58,5,5,0,0,0,1.23-.89,1.94,1.94,0,0,0,.58-1.12,2.06,2.06,0,0,0-1.14-2,2,2,0,0,0-1.26-.09,5.33,5.33,0,0,0-1.41.58,5.76,5.76,0,0,0-1.23.9,2,2,0,0,0-.59,1.12,1.91,1.91,0,0,0,.26,1.23A1.74,1.74,0,0,0,123.16,42.65Z"/><path class="cls-1" d="M123.37,47.34a.2.2,0,0,1,.12-.12l1.43-.53a.36.36,0,0,1,.27,0L131.62,49c.09,0,.11,0,.08-.09L130.24,45a.25.25,0,0,1,0-.17.25.25,0,0,1,.12-.11l1.37-.51a.18.18,0,0,1,.16,0,.23.23,0,0,1,.12.12l2.3,6.14a.22.22,0,0,1,0,.16.24.24,0,0,1-.13.11l-1.43.54a.32.32,0,0,1-.27,0L126,48.89c-.08,0-.11,0-.08.09l1.55,4.13a.18.18,0,0,1,0,.16.2.2,0,0,1-.12.12L126,53.9a.2.2,0,0,1-.17,0,.19.19,0,0,1-.11-.12l-2.36-6.27A.18.18,0,0,1,123.37,47.34Z"/><circle class="cls-1" cx="135" cy="71.31" r="4"/><circle class="cls-1" cx="4" cy="71.31" r="4"/></g></g></svg>