<svg width="191" height="50" viewBox="0 0 191 50" fill="none" xmlns="http://www.w3.org/2000/svg">
<path d="M9.11072 40.6111C7.4184 40.6111 5.88256 40.2923 4.5032 39.6548C3.12384 39.0057 2.02847 38.0726 1.21708 36.8555C0.405693 35.6269 0 34.1432 0 32.4045C0 30.8744 0.301372 29.6342 0.904117 28.6837C1.50686 27.7216 2.31245 26.9682 3.32089 26.4234C4.32933 25.8786 5.44209 25.4729 6.65917 25.2063C7.88784 24.9281 9.12231 24.7079 10.3626 24.5456C11.9854 24.337 13.301 24.1805 14.3094 24.0762C15.3294 23.9603 16.0713 23.769 16.5349 23.5024C17.0102 23.2358 17.2478 22.7722 17.2478 22.1115V21.9724C17.2478 20.2569 16.7783 18.9239 15.8394 17.9734C14.9121 17.0229 13.5038 16.5477 11.6144 16.5477C9.65551 16.5477 8.11967 16.9765 7.00691 17.8343C5.89415 18.692 5.11174 19.6078 4.65968 20.5814L0.765022 19.1905C1.4605 17.5677 2.3878 16.3042 3.54692 15.4001C4.71764 14.4844 5.99268 13.8469 7.37203 13.4876C8.76298 13.1167 10.1308 12.9312 11.4753 12.9312C12.3331 12.9312 13.3183 13.0355 14.4311 13.2442C15.5555 13.4412 16.6392 13.8527 17.6824 14.4786C18.7373 15.1046 19.6124 16.0492 20.3079 17.3127C21.0033 18.5761 21.3511 20.2685 21.3511 22.3897V39.9852H17.2478V36.3687H17.0391C16.7609 36.9483 16.2973 37.5684 15.6482 38.2291C14.9991 38.8898 14.1355 39.452 13.0575 39.9156C11.9796 40.3793 10.6639 40.6111 9.11072 40.6111ZM9.73665 36.9251C11.3594 36.9251 12.7272 36.6063 13.84 35.9688C14.9643 35.3313 15.8105 34.5083 16.3784 33.4999C16.958 32.4914 17.2478 31.4308 17.2478 30.3181V26.5625C17.0739 26.7711 16.6914 26.9624 16.1002 27.1363C15.5207 27.2985 14.8484 27.4434 14.0834 27.5709C13.3299 27.6869 12.5939 27.7912 11.8752 27.8839C11.1682 27.965 10.5944 28.0346 10.1539 28.0925C9.08754 28.2316 8.09069 28.4577 7.16339 28.7706C6.24768 29.072 5.50584 29.5299 4.93787 30.1442C4.38149 30.7469 4.1033 31.5699 4.1033 32.6131C4.1033 34.0389 4.6307 35.1168 5.68551 35.8471C6.7519 36.5657 8.10228 36.9251 9.73665 36.9251Z" fill="white"/>
<path d="M32.9438 4.37686V39.9852H28.8405V4.37686H32.9438Z" fill="white"/>
<path d="M58.6807 50V35.8819H58.333C58.0316 36.3687 57.6027 36.983 57.0463 37.7249C56.4899 38.4551 55.6959 39.11 54.6643 39.6896C53.6327 40.2576 52.2591 40.5415 50.5436 40.5415C48.3181 40.5415 46.3534 39.9794 44.6495 38.855C42.9456 37.7191 41.6126 36.1195 40.6505 34.0562C39.6884 31.9814 39.2074 29.5299 39.2074 26.7016C39.2074 23.8965 39.6884 21.4624 40.6505 19.3991C41.6126 17.3359 42.9514 15.7421 44.6669 14.6177C46.3824 13.4934 48.3645 12.9312 50.6132 12.9312C52.3519 12.9312 53.7254 13.221 54.7339 13.8005C55.7539 14.3685 56.5305 15.0176 57.0637 15.7479C57.6085 16.4665 58.0316 17.0577 58.333 17.5213H58.8198V13.2789H62.784V50H58.6807ZM51.1 36.8555C52.746 36.8555 54.1369 36.4267 55.2729 35.5689C56.4088 34.6996 57.2724 33.4999 57.8635 31.9698C58.4547 30.4282 58.7502 28.6489 58.7502 26.6321C58.7502 24.6384 58.4605 22.8939 57.8809 21.3986C57.3013 19.8917 56.4436 18.721 55.3076 17.8865C54.1717 17.0403 52.7692 16.6172 51.1 16.6172C49.3613 16.6172 47.9124 17.0635 46.7533 17.956C45.6058 18.8369 44.7422 20.0366 44.1627 21.5551C43.5947 23.0619 43.3107 24.7543 43.3107 26.6321C43.3107 28.533 43.6005 30.2601 44.18 31.8133C44.7712 33.355 45.6405 34.5836 46.7881 35.4994C47.9472 36.4035 49.3845 36.8555 51.1 36.8555Z" fill="white"/>
<path d="M87.1256 29.0662V13.2789H91.2289V39.9852H87.1256V35.4646H86.8474C86.2215 36.8208 85.2478 37.9741 83.9264 38.9246C82.605 39.8635 80.9359 40.3329 78.919 40.3329C77.2499 40.3329 75.7662 39.9678 74.468 39.2375C73.1698 38.4957 72.1497 37.3829 71.4079 35.8993C70.666 34.404 70.2951 32.5204 70.2951 30.2485V13.2789H74.3984V29.9703C74.3984 31.9177 74.9432 33.4709 76.0328 34.63C77.134 35.7891 78.5365 36.3687 80.2404 36.3687C81.2604 36.3687 82.2979 36.1079 83.3527 35.5863C84.4191 35.0647 85.3116 34.2649 86.0302 33.1869C86.7605 32.1089 87.1256 30.7354 87.1256 29.0662Z" fill="white"/>
<path d="M98.7444 39.9852V13.2789H102.848V39.9852H98.7444ZM100.831 8.8279C100.031 8.8279 99.3413 8.5555 98.7618 8.01071C98.1938 7.46593 97.9098 6.81102 97.9098 6.046C97.9098 5.28098 98.1938 4.62607 98.7618 4.08128C99.3413 3.53649 100.031 3.2641 100.831 3.2641C101.631 3.2641 102.314 3.53649 102.882 4.08128C103.462 4.62607 103.752 5.28098 103.752 6.046C103.752 6.81102 103.462 7.46593 102.882 8.01071C102.314 8.5555 101.631 8.8279 100.831 8.8279Z" fill="white"/>
<path d="M108.908 14.1309C107.668 14.9191 106.584 16.0434 106.027 17.4692V22.6588C106.104 21.608 106.375 20.6663 106.839 19.8338C107.407 18.8253 108.149 18.0371 109.065 17.4692C109.992 16.9012 110.989 16.6172 112.055 16.6172C113.609 16.6172 114.878 17.0867 115.863 18.0256C116.848 18.9529 117.341 20.1757 117.341 21.6942V39.9852H121.514V22.5983C121.514 20.8712 122.03 19.4455 123.061 18.3211C124.093 17.1852 125.548 16.6172 127.425 16.6172C128.886 16.6172 130.155 17.0403 131.233 17.8865C132.311 18.7326 132.85 20.141 132.85 22.1115V39.9852H136.953V22.1115C136.953 18.9702 136.194 16.6578 134.676 15.1741C133.157 13.6788 131.204 12.9312 128.816 12.9312C126.904 12.9312 125.264 13.3427 123.896 14.1657C122.528 14.9771 121.502 16.0724 120.818 17.4518H120.54C119.88 16.0261 118.958 14.9191 117.776 14.1309C116.605 13.3311 115.139 12.9312 113.377 12.9312C111.638 12.9312 110.149 13.3311 108.908 14.1309Z" fill="white"/>
<path fill-rule="evenodd" clip-rule="evenodd" d="M190.894 0H143.565V47.3294H190.894V0ZM154.038 15.2819V37.5371H157.458V15.2819H154.038ZM154.053 10.8917C154.536 11.3457 155.111 11.5727 155.777 11.5727C156.444 11.5727 157.013 11.3457 157.487 10.8917C157.97 10.4377 158.211 9.89197 158.211 9.25445C158.211 8.61693 157.97 8.07118 157.487 7.61719C157.013 7.1632 156.444 6.9362 155.777 6.9362C155.111 6.9362 154.536 7.1632 154.053 7.61719C153.58 8.07118 153.343 8.61693 153.343 9.25445C153.343 9.89197 153.58 10.4377 154.053 10.8917ZM166.43 37.2618C167.58 37.7931 168.859 38.0587 170.27 38.0587C171.564 38.0587 172.66 37.8655 173.559 37.4791C174.457 37.0928 175.177 36.6243 175.718 36.0737C176.259 35.5231 176.645 35.0063 176.877 34.5234H177.051V37.5371H180.47V22.8742C180.47 21.1065 180.18 19.6962 179.601 18.6434C179.021 17.5905 178.292 16.8032 177.413 16.2816C176.544 15.76 175.64 15.4171 174.703 15.2529C173.776 15.0791 172.955 14.9921 172.24 14.9921C171.12 14.9921 169.98 15.1467 168.821 15.4558C167.671 15.7552 166.609 16.2865 165.633 17.0496C164.667 17.803 163.895 18.8559 163.315 20.2082L166.561 21.3673C166.937 20.5559 167.589 19.7928 168.517 19.078C169.444 18.3632 170.724 18.0058 172.356 18.0058C173.931 18.0058 175.104 18.4019 175.877 19.1939C176.659 19.986 177.051 21.0968 177.051 22.5264V22.6423C177.051 23.1929 176.853 23.5793 176.457 23.8015C176.07 24.0236 175.452 24.183 174.602 24.2796C173.762 24.3665 172.665 24.4969 171.313 24.6708C170.279 24.806 169.251 24.9896 168.227 25.2214C167.213 25.4436 166.285 25.7816 165.445 26.2356C164.605 26.6896 163.933 27.3175 163.431 28.1192C162.929 28.9113 162.677 29.9448 162.677 31.2199C162.677 32.6688 163.016 33.9052 163.692 34.9291C164.368 35.9433 165.281 36.7209 166.43 37.2618ZM174.211 34.1901C173.283 34.7214 172.144 34.987 170.791 34.987C169.429 34.987 168.304 34.6876 167.415 34.0887C166.536 33.4802 166.097 32.5818 166.097 31.3937C166.097 30.5244 166.329 29.8386 166.792 29.3363C167.266 28.8243 167.884 28.4428 168.647 28.1916C169.42 27.9308 170.25 27.7425 171.139 27.6266C171.506 27.5783 171.984 27.5203 172.574 27.4527C173.172 27.3754 173.786 27.2885 174.414 27.1919C175.051 27.0856 175.611 26.9649 176.094 26.8297C176.587 26.6848 176.906 26.5254 177.051 26.3515V29.4812C177.051 30.4085 176.809 31.2923 176.326 32.1327C175.853 32.973 175.148 33.6589 174.211 34.1901Z" fill="white"/>
</svg>
